M48
; DRILL file {KiCad 9.0.1} date 2025-05-27T02:43:24+0200
; FORMAT={-:-/ absolute / inch / decimal}
; #@! TF.CreationDate,2025-05-27T02:43:24+02:00
; #@! TF.GenerationSoftware,Kicad,Pcbnew,9.0.1
; #@! TF.FileFunction,Plated,1,2,PTH
FMAT,2
INCH
; #@! TA.AperFunction,Plated,PTH,ComponentDrill
T1C0.0079
; #@! TA.AperFunction,Plated,PTH,ViaDrill
T2C0.0118
; #@! TA.AperFunction,Plated,PTH,ComponentDrill
T3C0.0236
; #@! TA.AperFunction,Plated,PTH,ComponentDrill
T4C0.0374
; #@! TA.AperFunction,Plated,PTH,ComponentDrill
T5C0.0394
; #@! TA.AperFunction,Plated,PTH,ComponentDrill
T6C0.0433
; #@! TA.AperFunction,Plated,PTH,ComponentDrill
T7C0.0512
%
G90
G05
T1
X4.7985Y-2.685
X4.7985Y-2.7315
X4.845Y-2.685
X4.845Y-2.7315
T2
X3.7985Y-3.3293
X3.8358Y-3.0296
X3.9177Y-2.3413
X3.926Y-2.288
X4.1267Y-2.5732
X4.1792Y-3.1181
X4.2145Y-3.6092
X4.2145Y-3.8413
X4.2654Y-2.8817
X4.3307Y-2.6281
X4.3307Y-3.4947
X4.4274Y-2.6395
X4.6067Y-2.5818
X4.6795Y-3.4947
X4.6795Y-3.8413
X4.7882Y-2.945
X4.92Y-2.7249
X4.9319Y-2.9134
X4.986Y-2.462
X4.986Y-2.494
X4.986Y-2.532
X4.99Y-2.58
X5.0283Y-3.4947
T4
X3.5793Y-2.9547
X3.5793Y-3.0531
X3.5793Y-3.1516
X3.5793Y-3.25
X3.5793Y-3.3484
X4.7243Y-3.1766
X4.7243Y-3.275
X4.7243Y-3.3734
T5
X5.187Y-2.2634
X5.187Y-2.3634
X5.187Y-2.4634
X5.187Y-2.5634
X5.187Y-2.6634
X5.187Y-2.7634
X5.187Y-2.8634
X5.187Y-2.9634
X5.187Y-3.0634
X5.187Y-3.1634
X5.187Y-3.2634
X5.187Y-3.3634
X5.187Y-3.4634
X5.187Y-3.5634
T6
X3.9307Y-3.1791
X3.9307Y-3.2791
X3.9307Y-3.3791
X4.1355Y-3.18
X4.1355Y-3.28
X4.1355Y-3.38
X4.3402Y-3.18
X4.3402Y-3.28
X4.3402Y-3.38
X4.545Y-3.18
X4.545Y-3.28
X4.545Y-3.38
T7
X3.8305Y-3.7168
X4.0305Y-3.7168
X4.2305Y-3.7168
X4.4305Y-3.7168
X4.6305Y-3.7168
X4.8305Y-3.7168
T3
G00X3.4673Y-2.4399
M15
G01X3.4358Y-2.4399
M16
G05
G00X3.4673Y-2.7801
M15
G01X3.4358Y-2.7801
M16
G05
G00X3.6378Y-2.4399
M15
G01X3.5945Y-2.4399
M16
G05
G00X3.6378Y-2.7801
M15
G01X3.5945Y-2.7801
M16
G05
M30
