%TF.GenerationSoftware,KiCad,Pcbnew,9.0.1*%
%TF.CreationDate,2025-05-27T02:43:24+02:00*%
%TF.ProjectId,LEDController,4c454443-6f6e-4747-926f-6c6c65722e6b,1*%
%TF.SameCoordinates,Original*%
%TF.FileFunction,Soldermask,Top*%
%TF.FilePolarity,Negative*%
%FSLAX46Y46*%
G04 Gerber Fmt 4.6, Leading zero omitted, Abs format (unit mm)*
G04 Created by KiCad (PCBNEW 9.0.1) date 2025-05-27 02:43:24*
%MOMM*%
%LPD*%
G01*
G04 APERTURE LIST*
G04 Aperture macros list*
%AMRoundRect*
0 Rectangle with rounded corners*
0 $1 Rounding radius*
0 $2 $3 $4 $5 $6 $7 $8 $9 X,Y pos of 4 corners*
0 Add a 4 corners polygon primitive as box body*
4,1,4,$2,$3,$4,$5,$6,$7,$8,$9,$2,$3,0*
0 Add four circle primitives for the rounded corners*
1,1,$1+$1,$2,$3*
1,1,$1+$1,$4,$5*
1,1,$1+$1,$6,$7*
1,1,$1+$1,$8,$9*
0 Add four rect primitives between the rounded corners*
20,1,$1+$1,$2,$3,$4,$5,0*
20,1,$1+$1,$4,$5,$6,$7,0*
20,1,$1+$1,$6,$7,$8,$9,0*
20,1,$1+$1,$8,$9,$2,$3,0*%
%AMFreePoly0*
4,1,23,0.500000,-0.750000,0.000000,-0.750000,0.000000,-0.745722,-0.065263,-0.745722,-0.191342,-0.711940,-0.304381,-0.646677,-0.396677,-0.554381,-0.461940,-0.441342,-0.495722,-0.315263,-0.495722,-0.250000,-0.500000,-0.250000,-0.500000,0.250000,-0.495722,0.250000,-0.495722,0.315263,-0.461940,0.441342,-0.396677,0.554381,-0.304381,0.646677,-0.191342,0.711940,-0.065263,0.745722,0.000000,0.745722,
0.000000,0.750000,0.500000,0.750000,0.500000,-0.750000,0.500000,-0.750000,$1*%
%AMFreePoly1*
4,1,23,0.000000,0.745722,0.065263,0.745722,0.191342,0.711940,0.304381,0.646677,0.396677,0.554381,0.461940,0.441342,0.495722,0.315263,0.495722,0.250000,0.500000,0.250000,0.500000,-0.250000,0.495722,-0.250000,0.495722,-0.315263,0.461940,-0.441342,0.396677,-0.554381,0.304381,-0.646677,0.191342,-0.711940,0.065263,-0.745722,0.000000,-0.745722,0.000000,-0.750000,-0.500000,-0.750000,
-0.500000,0.750000,0.000000,0.750000,0.000000,0.745722,0.000000,0.745722,$1*%
G04 Aperture macros list end*
%ADD10R,1.700000X1.700000*%
%ADD11C,1.700000*%
%ADD12RoundRect,0.250000X0.337500X0.475000X-0.337500X0.475000X-0.337500X-0.475000X0.337500X-0.475000X0*%
%ADD13R,1.500000X0.900000*%
%ADD14R,0.900000X1.500000*%
%ADD15R,1.000000X1.000000*%
%ADD16R,2.000000X1.905000*%
%ADD17O,2.000000X1.905000*%
%ADD18RoundRect,0.250000X-0.350000X-0.450000X0.350000X-0.450000X0.350000X0.450000X-0.350000X0.450000X0*%
%ADD19RoundRect,0.250000X0.412500X1.100000X-0.412500X1.100000X-0.412500X-1.100000X0.412500X-1.100000X0*%
%ADD20RoundRect,0.250000X0.450000X-0.350000X0.450000X0.350000X-0.450000X0.350000X-0.450000X-0.350000X0*%
%ADD21R,1.700000X1.500000*%
%ADD22RoundRect,0.250000X0.725000X-0.600000X0.725000X0.600000X-0.725000X0.600000X-0.725000X-0.600000X0*%
%ADD23O,1.950000X1.700000*%
%ADD24RoundRect,0.250000X-1.050000X-1.050000X1.050000X-1.050000X1.050000X1.050000X-1.050000X1.050000X0*%
%ADD25C,2.600000*%
%ADD26RoundRect,0.250000X0.350000X0.450000X-0.350000X0.450000X-0.350000X-0.450000X0.350000X-0.450000X0*%
%ADD27RoundRect,0.250000X-0.475000X0.337500X-0.475000X-0.337500X0.475000X-0.337500X0.475000X0.337500X0*%
%ADD28RoundRect,0.250000X-0.300000X-1.600000X0.300000X-1.600000X0.300000X1.600000X-0.300000X1.600000X0*%
%ADD29RoundRect,0.250000X0.475000X-0.337500X0.475000X0.337500X-0.475000X0.337500X-0.475000X-0.337500X0*%
%ADD30RoundRect,0.062500X-0.062500X0.350000X-0.062500X-0.350000X0.062500X-0.350000X0.062500X0.350000X0*%
%ADD31RoundRect,0.062500X-0.350000X0.062500X-0.350000X-0.062500X0.350000X-0.062500X0.350000X0.062500X0*%
%ADD32R,1.680000X1.680000*%
%ADD33RoundRect,0.150000X-0.425000X0.150000X-0.425000X-0.150000X0.425000X-0.150000X0.425000X0.150000X0*%
%ADD34RoundRect,0.075000X-0.500000X0.075000X-0.500000X-0.075000X0.500000X-0.075000X0.500000X0.075000X0*%
%ADD35O,2.100000X1.000000*%
%ADD36O,1.800000X1.000000*%
%ADD37FreePoly0,90.000000*%
%ADD38FreePoly1,90.000000*%
%ADD39RoundRect,0.250000X-0.412500X-1.100000X0.412500X-1.100000X0.412500X1.100000X-0.412500X1.100000X0*%
G04 APERTURE END LIST*
%TO.C,JP1*%
G36*
X124500000Y-87150000D02*
G01*
X126000000Y-87150000D01*
X126000000Y-86850000D01*
X124500000Y-86850000D01*
X124500000Y-87150000D01*
G37*
%TD*%
D10*
%TO.C,J9*%
X131750000Y-57490000D03*
D11*
X131750000Y-60030000D03*
X131750000Y-62570000D03*
X131750000Y-65110000D03*
X131750000Y-67650000D03*
X131750000Y-70190000D03*
X131750000Y-72730000D03*
X131750000Y-75270000D03*
X131750000Y-77810000D03*
X131750000Y-80350000D03*
X131750000Y-82890000D03*
X131750000Y-85430000D03*
X131750000Y-87970000D03*
X131750000Y-90510000D03*
%TD*%
D12*
%TO.C,C6*%
X121230300Y-73406000D03*
X119155300Y-73406000D03*
%TD*%
D13*
%TO.C,U2*%
X96684000Y-56858000D03*
X96684000Y-58128000D03*
X96684000Y-59398000D03*
X96684000Y-60668000D03*
X96684000Y-61938000D03*
X96684000Y-63208000D03*
X96684000Y-64478000D03*
X96684000Y-65748000D03*
X96684000Y-67018000D03*
X96684000Y-68288000D03*
X96684000Y-69558000D03*
X96684000Y-70828000D03*
X96684000Y-72098000D03*
X96684000Y-73368000D03*
D14*
X98449000Y-74618000D03*
X99719000Y-74618000D03*
X100989000Y-74618000D03*
X102259000Y-74618000D03*
X103529000Y-74618000D03*
X104799000Y-74618000D03*
X106069000Y-74618000D03*
X107339000Y-74618000D03*
X108609000Y-74618000D03*
X109879000Y-74618000D03*
X111149000Y-74618000D03*
X112419000Y-74618000D03*
D13*
X114184000Y-73368000D03*
X114184000Y-72098000D03*
X114184000Y-70828000D03*
X114184000Y-69558000D03*
X114184000Y-68288000D03*
X114184000Y-67018000D03*
X114184000Y-65748000D03*
X114184000Y-64478000D03*
X114184000Y-63208000D03*
X114184000Y-61938000D03*
X114184000Y-60668000D03*
X114184000Y-59398000D03*
X114184000Y-58128000D03*
X114184000Y-56858000D03*
D15*
X102574000Y-60708000D03*
X102574000Y-62208000D03*
X102574000Y-62208000D03*
X102574000Y-63708000D03*
X104074000Y-60708000D03*
X104074000Y-60708000D03*
X104074000Y-62208000D03*
X104074000Y-63708000D03*
X105574000Y-60708000D03*
X105574000Y-62208000D03*
X105574000Y-63708000D03*
%TD*%
D16*
%TO.C,Q4*%
X115443000Y-85852000D03*
D17*
X115443000Y-83312000D03*
X115443000Y-80772000D03*
%TD*%
D18*
%TO.C,R7*%
X91874000Y-59414000D03*
X93874000Y-59414000D03*
%TD*%
%TO.C,R6*%
X98748000Y-76686000D03*
X100748000Y-76686000D03*
%TD*%
D19*
%TO.C,C5*%
X90372500Y-58000000D03*
X87247500Y-58000000D03*
%TD*%
D20*
%TO.C,R9*%
X116500000Y-76500000D03*
X116500000Y-74500000D03*
%TD*%
D18*
%TO.C,R8*%
X117011000Y-65577000D03*
X119011000Y-65577000D03*
%TD*%
%TO.C,R4*%
X111500000Y-76708000D03*
X113500000Y-76708000D03*
%TD*%
D21*
%TO.C,SW2*%
X123000000Y-51100000D03*
X123000000Y-56000000D03*
%TD*%
D22*
%TO.C,J1*%
X90915000Y-85050000D03*
D23*
X90915000Y-82550000D03*
X90915000Y-80050000D03*
X90915000Y-77550000D03*
X90915000Y-75050000D03*
%TD*%
D24*
%TO.C,J3*%
X107455000Y-94406500D03*
D25*
X112535000Y-94406500D03*
%TD*%
D16*
%TO.C,Q3*%
X110242000Y-85852000D03*
D17*
X110242000Y-83312000D03*
X110242000Y-80772000D03*
%TD*%
D18*
%TO.C,R2*%
X116475000Y-62103000D03*
X118475000Y-62103000D03*
%TD*%
D24*
%TO.C,J2*%
X97295000Y-94406500D03*
D25*
X102375000Y-94406500D03*
%TD*%
D22*
%TO.C,J6*%
X119998000Y-85685000D03*
D23*
X119998000Y-83185000D03*
X119998000Y-80685000D03*
%TD*%
D26*
%TO.C,R5*%
X104526000Y-76686000D03*
X102526000Y-76686000D03*
%TD*%
D27*
%TO.C,C1*%
X125857000Y-58017500D03*
X125857000Y-60092500D03*
%TD*%
D28*
%TO.C,L1*%
X122353000Y-63582000D03*
X125353000Y-63582000D03*
%TD*%
D18*
%TO.C,R3*%
X106860000Y-76686000D03*
X108860000Y-76686000D03*
%TD*%
D16*
%TO.C,Q2*%
X105041000Y-85852000D03*
D17*
X105041000Y-83312000D03*
X105041000Y-80772000D03*
%TD*%
D21*
%TO.C,SW1*%
X118000000Y-51100000D03*
X118000000Y-56000000D03*
%TD*%
D29*
%TO.C,C8*%
X117757000Y-71186500D03*
X117757000Y-69111500D03*
%TD*%
D30*
%TO.C,U1*%
X123223000Y-67326500D03*
X122723000Y-67326500D03*
X122223000Y-67326500D03*
X121723000Y-67326500D03*
D31*
X121010500Y-68039000D03*
X121010500Y-68539000D03*
X121010500Y-69039000D03*
X121010500Y-69539000D03*
D30*
X121723000Y-70251500D03*
X122223000Y-70251500D03*
X122723000Y-70251500D03*
X123223000Y-70251500D03*
D31*
X123935500Y-69539000D03*
X123935500Y-69039000D03*
X123935500Y-68539000D03*
X123935500Y-68039000D03*
D32*
X122473000Y-68789000D03*
%TD*%
D16*
%TO.C,Q1*%
X99840000Y-85830000D03*
D17*
X99840000Y-83290000D03*
X99840000Y-80750000D03*
%TD*%
D33*
%TO.C,J5*%
X92425000Y-63094000D03*
X92425000Y-63894000D03*
D34*
X92425000Y-65044000D03*
X92425000Y-66044000D03*
X92425000Y-66544000D03*
X92425000Y-67544000D03*
D33*
X92425000Y-68694000D03*
X92425000Y-69494000D03*
X92425000Y-69494000D03*
X92425000Y-68694000D03*
D34*
X92425000Y-68044000D03*
X92425000Y-67044000D03*
X92425000Y-65544000D03*
X92425000Y-64544000D03*
D33*
X92425000Y-63894000D03*
X92425000Y-63094000D03*
D35*
X91850000Y-61974000D03*
D36*
X87670000Y-61974000D03*
D35*
X91850000Y-70614000D03*
D36*
X87670000Y-70614000D03*
%TD*%
D37*
%TO.C,JP1*%
X125250000Y-87650000D03*
D38*
X125250000Y-86350000D03*
%TD*%
D29*
%TO.C,C3*%
X94500000Y-56537500D03*
X94500000Y-54462500D03*
%TD*%
D27*
%TO.C,C9*%
X126238000Y-66857500D03*
X126238000Y-68932500D03*
%TD*%
D24*
%TO.C,J4*%
X117615000Y-94406500D03*
D25*
X122695000Y-94406500D03*
%TD*%
D29*
%TO.C,C2*%
X120650000Y-59965500D03*
X120650000Y-57890500D03*
%TD*%
D39*
%TO.C,C7*%
X123708500Y-73483000D03*
X126833500Y-73483000D03*
%TD*%
D18*
%TO.C,R1*%
X116475000Y-59944000D03*
X118475000Y-59944000D03*
%TD*%
D29*
%TO.C,C4*%
X92500000Y-56537500D03*
X92500000Y-54462500D03*
%TD*%
M02*
