%TF.GenerationSoftware,KiCad,Pcbnew,9.0.1*%
%TF.CreationDate,2025-05-27T02:43:24+02:00*%
%TF.ProjectId,LEDController,4c454443-6f6e-4747-926f-6c6c65722e6b,1*%
%TF.SameCoordinates,Original*%
%TF.FileFunction,Legend,Bot*%
%TF.FilePolarity,Positive*%
%FSLAX46Y46*%
G04 Gerber Fmt 4.6, Leading zero omitted, Abs format (unit mm)*
G04 Created by KiCad (PCBNEW 9.0.1) date 2025-05-27 02:43:24*
%MOMM*%
%LPD*%
G01*
G04 APERTURE LIST*
G04 Aperture macros list*
%AMRoundRect*
0 Rectangle with rounded corners*
0 $1 Rounding radius*
0 $2 $3 $4 $5 $6 $7 $8 $9 X,Y pos of 4 corners*
0 Add a 4 corners polygon primitive as box body*
4,1,4,$2,$3,$4,$5,$6,$7,$8,$9,$2,$3,0*
0 Add four circle primitives for the rounded corners*
1,1,$1+$1,$2,$3*
1,1,$1+$1,$4,$5*
1,1,$1+$1,$6,$7*
1,1,$1+$1,$8,$9*
0 Add four rect primitives between the rounded corners*
20,1,$1+$1,$2,$3,$4,$5,0*
20,1,$1+$1,$4,$5,$6,$7,0*
20,1,$1+$1,$6,$7,$8,$9,0*
20,1,$1+$1,$8,$9,$2,$3,0*%
G04 Aperture macros list end*
%ADD10C,1.000000*%
%ADD11C,3.200000*%
%ADD12R,1.700000X1.700000*%
%ADD13C,1.700000*%
%ADD14R,2.000000X1.905000*%
%ADD15O,2.000000X1.905000*%
%ADD16RoundRect,0.250000X0.725000X-0.600000X0.725000X0.600000X-0.725000X0.600000X-0.725000X-0.600000X0*%
%ADD17O,1.950000X1.700000*%
%ADD18RoundRect,0.250000X-1.050000X-1.050000X1.050000X-1.050000X1.050000X1.050000X-1.050000X1.050000X0*%
%ADD19C,2.600000*%
%ADD20C,0.650000*%
%ADD21O,2.100000X1.000000*%
%ADD22O,1.800000X1.000000*%
G04 APERTURE END LIST*
D10*
X90500000Y-52000000D02*
G75*
G02*
X85500000Y-52000000I-2500000J0D01*
G01*
X85500000Y-52000000D02*
G75*
G02*
X90500000Y-52000000I2500000J0D01*
G01*
X134500000Y-96000000D02*
G75*
G02*
X129500000Y-96000000I-2500000J0D01*
G01*
X129500000Y-96000000D02*
G75*
G02*
X134500000Y-96000000I2500000J0D01*
G01*
X134500000Y-52000000D02*
G75*
G02*
X129500000Y-52000000I-2500000J0D01*
G01*
X129500000Y-52000000D02*
G75*
G02*
X134500000Y-52000000I2500000J0D01*
G01*
X90500000Y-96000000D02*
G75*
G02*
X85500000Y-96000000I-2500000J0D01*
G01*
X85500000Y-96000000D02*
G75*
G02*
X90500000Y-96000000I2500000J0D01*
G01*
X85500000Y-52000000D02*
X85500000Y-96000000D01*
X88000000Y-98500000D02*
X132000000Y-98500000D01*
X134500000Y-96000000D02*
X134500000Y-52000000D01*
X132000000Y-49500000D02*
X88000000Y-49500000D01*
%LPC*%
D11*
%TO.C,H2*%
X132000000Y-52000000D03*
%TD*%
D12*
%TO.C,J9*%
X131750000Y-57490000D03*
D13*
X131750000Y-60030000D03*
X131750000Y-62570000D03*
X131750000Y-65110000D03*
X131750000Y-67650000D03*
X131750000Y-70190000D03*
X131750000Y-72730000D03*
X131750000Y-75270000D03*
X131750000Y-77810000D03*
X131750000Y-80350000D03*
X131750000Y-82890000D03*
X131750000Y-85430000D03*
X131750000Y-87970000D03*
X131750000Y-90510000D03*
%TD*%
D14*
%TO.C,Q4*%
X115443000Y-85852000D03*
D15*
X115443000Y-83312000D03*
X115443000Y-80772000D03*
%TD*%
D11*
%TO.C,H4*%
X88000000Y-96000000D03*
%TD*%
D16*
%TO.C,J1*%
X90915000Y-85050000D03*
D17*
X90915000Y-82550000D03*
X90915000Y-80050000D03*
X90915000Y-77550000D03*
X90915000Y-75050000D03*
%TD*%
D18*
%TO.C,J3*%
X107455000Y-94406500D03*
D19*
X112535000Y-94406500D03*
%TD*%
D14*
%TO.C,Q3*%
X110242000Y-85852000D03*
D15*
X110242000Y-83312000D03*
X110242000Y-80772000D03*
%TD*%
D18*
%TO.C,J2*%
X97295000Y-94406500D03*
D19*
X102375000Y-94406500D03*
%TD*%
D16*
%TO.C,J6*%
X119998000Y-85685000D03*
D17*
X119998000Y-83185000D03*
X119998000Y-80685000D03*
%TD*%
D14*
%TO.C,Q2*%
X105041000Y-85852000D03*
D15*
X105041000Y-83312000D03*
X105041000Y-80772000D03*
%TD*%
D11*
%TO.C,H1*%
X88000000Y-52000000D03*
%TD*%
D14*
%TO.C,Q1*%
X99840000Y-85830000D03*
D15*
X99840000Y-83290000D03*
X99840000Y-80750000D03*
%TD*%
D20*
%TO.C,J5*%
X91350000Y-63404000D03*
X91350000Y-69184000D03*
D21*
X91850000Y-61974000D03*
D22*
X87670000Y-61974000D03*
D21*
X91850000Y-70614000D03*
D22*
X87670000Y-70614000D03*
%TD*%
D11*
%TO.C,H3*%
X132000000Y-96000000D03*
%TD*%
D18*
%TO.C,J4*%
X117615000Y-94406500D03*
D19*
X122695000Y-94406500D03*
%TD*%
%LPD*%
M02*
