%TF.GenerationSoftware,KiCad,Pcbnew,9.0.1*%
%TF.CreationDate,2025-05-27T02:43:24+02:00*%
%TF.ProjectId,LEDController,4c454443-6f6e-4747-926f-6c6c65722e6b,1*%
%TF.SameCoordinates,Original*%
%TF.FileFunction,Copper,L2,Bot*%
%TF.FilePolarity,Positive*%
%FSLAX46Y46*%
G04 Gerber Fmt 4.6, Leading zero omitted, Abs format (unit mm)*
G04 Created by KiCad (PCBNEW 9.0.1) date 2025-05-27 02:43:24*
%MOMM*%
%LPD*%
G01*
G04 APERTURE LIST*
G04 Aperture macros list*
%AMRoundRect*
0 Rectangle with rounded corners*
0 $1 Rounding radius*
0 $2 $3 $4 $5 $6 $7 $8 $9 X,Y pos of 4 corners*
0 Add a 4 corners polygon primitive as box body*
4,1,4,$2,$3,$4,$5,$6,$7,$8,$9,$2,$3,0*
0 Add four circle primitives for the rounded corners*
1,1,$1+$1,$2,$3*
1,1,$1+$1,$4,$5*
1,1,$1+$1,$6,$7*
1,1,$1+$1,$8,$9*
0 Add four rect primitives between the rounded corners*
20,1,$1+$1,$2,$3,$4,$5,0*
20,1,$1+$1,$4,$5,$6,$7,0*
20,1,$1+$1,$6,$7,$8,$9,0*
20,1,$1+$1,$8,$9,$2,$3,0*%
G04 Aperture macros list end*
%TA.AperFunction,ComponentPad*%
%ADD10R,1.700000X1.700000*%
%TD*%
%TA.AperFunction,ComponentPad*%
%ADD11C,1.700000*%
%TD*%
%TA.AperFunction,ComponentPad*%
%ADD12R,2.000000X1.905000*%
%TD*%
%TA.AperFunction,ComponentPad*%
%ADD13O,2.000000X1.905000*%
%TD*%
%TA.AperFunction,ComponentPad*%
%ADD14RoundRect,0.250000X0.725000X-0.600000X0.725000X0.600000X-0.725000X0.600000X-0.725000X-0.600000X0*%
%TD*%
%TA.AperFunction,ComponentPad*%
%ADD15O,1.950000X1.700000*%
%TD*%
%TA.AperFunction,ComponentPad*%
%ADD16RoundRect,0.250000X-1.050000X-1.050000X1.050000X-1.050000X1.050000X1.050000X-1.050000X1.050000X0*%
%TD*%
%TA.AperFunction,ComponentPad*%
%ADD17C,2.600000*%
%TD*%
%TA.AperFunction,HeatsinkPad*%
%ADD18C,0.500000*%
%TD*%
%TA.AperFunction,HeatsinkPad*%
%ADD19R,1.680000X1.680000*%
%TD*%
%TA.AperFunction,HeatsinkPad*%
%ADD20O,2.100000X1.000000*%
%TD*%
%TA.AperFunction,HeatsinkPad*%
%ADD21O,1.800000X1.000000*%
%TD*%
%TA.AperFunction,ViaPad*%
%ADD22C,0.600000*%
%TD*%
%TA.AperFunction,Conductor*%
%ADD23C,0.300000*%
%TD*%
%TA.AperFunction,Conductor*%
%ADD24C,1.000000*%
%TD*%
%TA.AperFunction,Conductor*%
%ADD25C,0.200000*%
%TD*%
G04 APERTURE END LIST*
D10*
%TO.P,J9,1,Pin_1*%
%TO.N,unconnected-(J9-Pin_1-Pad1)*%
X131750000Y-57490000D03*
D11*
%TO.P,J9,2,Pin_2*%
%TO.N,unconnected-(J9-Pin_2-Pad2)*%
X131750000Y-60030000D03*
%TO.P,J9,3,Pin_3*%
%TO.N,unconnected-(J9-Pin_3-Pad3)*%
X131750000Y-62570000D03*
%TO.P,J9,4,Pin_4*%
%TO.N,unconnected-(J9-Pin_4-Pad4)*%
X131750000Y-65110000D03*
%TO.P,J9,5,Pin_5*%
%TO.N,unconnected-(J9-Pin_5-Pad5)*%
X131750000Y-67650000D03*
%TO.P,J9,6,Pin_6*%
%TO.N,unconnected-(J9-Pin_6-Pad6)*%
X131750000Y-70190000D03*
%TO.P,J9,7,Pin_7*%
%TO.N,unconnected-(J9-Pin_7-Pad7)*%
X131750000Y-72730000D03*
%TO.P,J9,8,Pin_8*%
%TO.N,unconnected-(J9-Pin_8-Pad8)*%
X131750000Y-75270000D03*
%TO.P,J9,9,Pin_9*%
%TO.N,unconnected-(J9-Pin_9-Pad9)*%
X131750000Y-77810000D03*
%TO.P,J9,10,Pin_10*%
%TO.N,unconnected-(J9-Pin_10-Pad10)*%
X131750000Y-80350000D03*
%TO.P,J9,11,Pin_11*%
%TO.N,unconnected-(J9-Pin_11-Pad11)*%
X131750000Y-82890000D03*
%TO.P,J9,12,Pin_12*%
%TO.N,unconnected-(J9-Pin_12-Pad12)*%
X131750000Y-85430000D03*
%TO.P,J9,13,Pin_13*%
%TO.N,unconnected-(J9-Pin_13-Pad13)*%
X131750000Y-87970000D03*
%TO.P,J9,14,Pin_14*%
%TO.N,unconnected-(J9-Pin_14-Pad14)*%
X131750000Y-90510000D03*
%TD*%
D12*
%TO.P,Q4,1,D*%
%TO.N,W_out*%
X115443000Y-85852000D03*
D13*
%TO.P,Q4,2,G*%
%TO.N,W*%
X115443000Y-83312000D03*
%TO.P,Q4,3,S*%
%TO.N,GND*%
X115443000Y-80772000D03*
%TD*%
D14*
%TO.P,J1,1,Pin_1*%
%TO.N,W_out*%
X90915000Y-85050000D03*
D15*
%TO.P,J1,2,Pin_2*%
%TO.N,B_out*%
X90915000Y-82550000D03*
%TO.P,J1,3,Pin_3*%
%TO.N,R_out*%
X90915000Y-80050000D03*
%TO.P,J1,4,Pin_4*%
%TO.N,G_out*%
X90915000Y-77550000D03*
%TO.P,J1,5,Pin_5*%
%TO.N,+24V*%
X90915000Y-75050000D03*
%TD*%
D16*
%TO.P,J3,1,Pin_1*%
%TO.N,+24V*%
X107455000Y-94406500D03*
D17*
%TO.P,J3,2,Pin_2*%
%TO.N,GND*%
X112535000Y-94406500D03*
%TD*%
D12*
%TO.P,Q3,1,D*%
%TO.N,B_out*%
X110242000Y-85852000D03*
D13*
%TO.P,Q3,2,G*%
%TO.N,B*%
X110242000Y-83312000D03*
%TO.P,Q3,3,S*%
%TO.N,GND*%
X110242000Y-80772000D03*
%TD*%
D16*
%TO.P,J2,1,Pin_1*%
%TO.N,+24V*%
X97295000Y-94406500D03*
D17*
%TO.P,J2,2,Pin_2*%
%TO.N,GND*%
X102375000Y-94406500D03*
%TD*%
D14*
%TO.P,J6,1,Pin_1*%
%TO.N,Net-(J6-Pin_1)*%
X119998000Y-85685000D03*
D15*
%TO.P,J6,2,Pin_2*%
%TO.N,Net-(J6-Pin_2)*%
X119998000Y-83185000D03*
%TO.P,J6,3,Pin_3*%
%TO.N,GND*%
X119998000Y-80685000D03*
%TD*%
D12*
%TO.P,Q2,1,D*%
%TO.N,G_out*%
X105041000Y-85852000D03*
D13*
%TO.P,Q2,2,G*%
%TO.N,G*%
X105041000Y-83312000D03*
%TO.P,Q2,3,S*%
%TO.N,GND*%
X105041000Y-80772000D03*
%TD*%
D18*
%TO.P,U1,17,GND*%
%TO.N,GND*%
X123063000Y-68199000D03*
X121883000Y-68199000D03*
D19*
X122473000Y-68789000D03*
D18*
X123063000Y-69379000D03*
X121883000Y-69379000D03*
%TD*%
D12*
%TO.P,Q1,1,D*%
%TO.N,R_out*%
X99840000Y-85830000D03*
D13*
%TO.P,Q1,2,G*%
%TO.N,R*%
X99840000Y-83290000D03*
%TO.P,Q1,3,S*%
%TO.N,GND*%
X99840000Y-80750000D03*
%TD*%
D20*
%TO.P,J5,S1,SHIELD*%
%TO.N,unconnected-(J5-SHIELD-PadS1)_3*%
X91850000Y-61974000D03*
D21*
%TO.N,unconnected-(J5-SHIELD-PadS1)*%
X87670000Y-61974000D03*
D20*
%TO.N,unconnected-(J5-SHIELD-PadS1)_1*%
X91850000Y-70614000D03*
D21*
%TO.N,unconnected-(J5-SHIELD-PadS1)_2*%
X87670000Y-70614000D03*
%TD*%
D16*
%TO.P,J4,1,Pin_1*%
%TO.N,+24V*%
X117615000Y-94406500D03*
D17*
%TO.P,J4,2,Pin_2*%
%TO.N,GND*%
X122695000Y-94406500D03*
%TD*%
D22*
%TO.N,Data*%
X112455500Y-67042500D03*
X121620200Y-74804000D03*
%TO.N,W_out*%
X110000500Y-88764500D03*
%TO.N,W*%
X109998900Y-66753100D03*
%TO.N,B*%
X108341500Y-73195500D03*
%TO.N,G_out*%
X107047500Y-91673200D03*
%TO.N,G*%
X104817500Y-65360100D03*
%TO.N,R_out*%
X96482000Y-84565000D03*
%TO.N,R*%
X99509300Y-59470100D03*
%TO.N,+3.3V*%
X99720400Y-58115200D03*
X106151100Y-79200000D03*
%TO.N,+24V*%
X118859500Y-97568500D03*
X107047500Y-97568500D03*
X118859500Y-88764500D03*
X97429500Y-76952500D03*
X125271000Y-73999500D03*
X127718500Y-88764500D03*
%TO.N,+3.3V*%
X126644400Y-64312800D03*
X126644400Y-63347600D03*
X126746000Y-65532000D03*
X124968000Y-69213000D03*
X117011000Y-65577000D03*
X126644400Y-62534800D03*
%TD*%
D23*
%TO.N,Data*%
X120217000Y-74804000D02*
X121620200Y-74804000D01*
X112455500Y-67042500D02*
X120217000Y-74804000D01*
D24*
%TO.N,W_out*%
X111258800Y-87506200D02*
X110000500Y-88764500D01*
X115443000Y-87506200D02*
X111258800Y-87506200D01*
X115443000Y-85852000D02*
X115443000Y-87506200D01*
D23*
%TO.N,W*%
X109998900Y-77867900D02*
X109998900Y-66753100D01*
X115443000Y-83312000D02*
X109998900Y-77867900D01*
%TO.N,B*%
X108341500Y-81411500D02*
X108341500Y-73195500D01*
X110242000Y-83312000D02*
X108341500Y-81411500D01*
D24*
%TO.N,G_out*%
X105041000Y-89666700D02*
X105041000Y-85852000D01*
X107047500Y-91673200D02*
X105041000Y-89666700D01*
D23*
%TO.N,G*%
X103659700Y-66517900D02*
X104817500Y-65360100D01*
X103659700Y-81930700D02*
X103659700Y-66517900D01*
X105041000Y-83312000D02*
X103659700Y-81930700D01*
D24*
%TO.N,R_out*%
X92591700Y-80674700D02*
X96482000Y-84565000D01*
X92591700Y-80050000D02*
X92591700Y-80674700D01*
X90915000Y-80050000D02*
X92591700Y-80050000D01*
D23*
%TO.N,R*%
X98488300Y-60491100D02*
X99509300Y-59470100D01*
X98488300Y-81938300D02*
X98488300Y-60491100D01*
X99840000Y-83290000D02*
X98488300Y-81938300D01*
D24*
%TO.N,+3.3V*%
X107182000Y-65577000D02*
X99720400Y-58115200D01*
X107341300Y-65577000D02*
X107182000Y-65577000D01*
X117011000Y-65577000D02*
X107341300Y-65577000D01*
X106151100Y-66767200D02*
X106151100Y-79200000D01*
X107341300Y-65577000D02*
X106151100Y-66767200D01*
%TO.N,+24V*%
X107455000Y-97161000D02*
X107455000Y-94406500D01*
X107047500Y-97568500D02*
X107455000Y-97161000D01*
X117615000Y-96324000D02*
X118859500Y-97568500D01*
X117615000Y-94406500D02*
X117615000Y-96324000D01*
X118859500Y-93162000D02*
X118859500Y-88764500D01*
X117615000Y-94406500D02*
X118859500Y-93162000D01*
X97429500Y-83813000D02*
X97429500Y-76952500D01*
X97683700Y-84067200D02*
X97429500Y-83813000D01*
X97683700Y-94017800D02*
X97683700Y-84067200D01*
X97295000Y-94406500D02*
X97683700Y-94017800D01*
X127718500Y-76447000D02*
X127718500Y-88764500D01*
X125271000Y-73999500D02*
X127718500Y-76447000D01*
%TO.N,+3.3V*%
X126644400Y-65430400D02*
X126746000Y-65532000D01*
D25*
X126746000Y-67435000D02*
X126746000Y-65532000D01*
D24*
X120053200Y-62534800D02*
X117011000Y-65577000D01*
D25*
X124968000Y-69213000D02*
X126746000Y-67435000D01*
D24*
X126644400Y-62534800D02*
X120053200Y-62534800D01*
X126644400Y-62534800D02*
X126644400Y-65430400D01*
%TD*%
%TA.AperFunction,Conductor*%
%TO.N,GND*%
G36*
X96377039Y-49520185D02*
G01*
X96422794Y-49572989D01*
X96434000Y-49624500D01*
X96434000Y-55368000D01*
X114434000Y-55368000D01*
X114434000Y-51878711D01*
X130149500Y-51878711D01*
X130149500Y-52121288D01*
X130181161Y-52361785D01*
X130243947Y-52596104D01*
X130336773Y-52820205D01*
X130336776Y-52820212D01*
X130458064Y-53030289D01*
X130458066Y-53030292D01*
X130458067Y-53030293D01*
X130605733Y-53222736D01*
X130605739Y-53222743D01*
X130777256Y-53394260D01*
X130777262Y-53394265D01*
X130969711Y-53541936D01*
X131179788Y-53663224D01*
X131403900Y-53756054D01*
X131638211Y-53818838D01*
X131818586Y-53842584D01*
X131878711Y-53850500D01*
X131878712Y-53850500D01*
X132121289Y-53850500D01*
X132169388Y-53844167D01*
X132361789Y-53818838D01*
X132596100Y-53756054D01*
X132820212Y-53663224D01*
X133030289Y-53541936D01*
X133222738Y-53394265D01*
X133394265Y-53222738D01*
X133541936Y-53030289D01*
X133663224Y-52820212D01*
X133756054Y-52596100D01*
X133818838Y-52361789D01*
X133850500Y-52121288D01*
X133850500Y-51878712D01*
X133818838Y-51638211D01*
X133756054Y-51403900D01*
X133663224Y-51179788D01*
X133541936Y-50969711D01*
X133394265Y-50777262D01*
X133394260Y-50777256D01*
X133222743Y-50605739D01*
X133222736Y-50605733D01*
X133030293Y-50458067D01*
X133030292Y-50458066D01*
X133030289Y-50458064D01*
X132858661Y-50358974D01*
X132820214Y-50336777D01*
X132820205Y-50336773D01*
X132596104Y-50243947D01*
X132361785Y-50181161D01*
X132121289Y-50149500D01*
X132121288Y-50149500D01*
X131878712Y-50149500D01*
X131878711Y-50149500D01*
X131638214Y-50181161D01*
X131403895Y-50243947D01*
X131179794Y-50336773D01*
X131179785Y-50336777D01*
X130969706Y-50458067D01*
X130777263Y-50605733D01*
X130777256Y-50605739D01*
X130605739Y-50777256D01*
X130605733Y-50777263D01*
X130458067Y-50969706D01*
X130336777Y-51179785D01*
X130336773Y-51179794D01*
X130243947Y-51403895D01*
X130181161Y-51638214D01*
X130149500Y-51878711D01*
X114434000Y-51878711D01*
X114434000Y-49624500D01*
X114453685Y-49557461D01*
X114506489Y-49511706D01*
X114558000Y-49500500D01*
X131934108Y-49500500D01*
X131996249Y-49500500D01*
X132003736Y-49500726D01*
X132293796Y-49518271D01*
X132308657Y-49520075D01*
X132512662Y-49557461D01*
X132590798Y-49571780D01*
X132605335Y-49575363D01*
X132879172Y-49660695D01*
X132893163Y-49666000D01*
X133154743Y-49783727D01*
X133167989Y-49790680D01*
X133413465Y-49939075D01*
X133425776Y-49947573D01*
X133651573Y-50124473D01*
X133662781Y-50134403D01*
X133865596Y-50337218D01*
X133875526Y-50348426D01*
X133995481Y-50501538D01*
X134052422Y-50574217D01*
X134060926Y-50586537D01*
X134072532Y-50605735D01*
X134209316Y-50832004D01*
X134216275Y-50845263D01*
X134333997Y-51106831D01*
X134339306Y-51120832D01*
X134424635Y-51394663D01*
X134428219Y-51409201D01*
X134479923Y-51691340D01*
X134481728Y-51706205D01*
X134499274Y-51996263D01*
X134499500Y-52003750D01*
X134499500Y-95996249D01*
X134499274Y-96003736D01*
X134481728Y-96293794D01*
X134479923Y-96308659D01*
X134428219Y-96590798D01*
X134424635Y-96605336D01*
X134339306Y-96879167D01*
X134333997Y-96893168D01*
X134216275Y-97154736D01*
X134209316Y-97167995D01*
X134060928Y-97413459D01*
X134052422Y-97425782D01*
X133875526Y-97651573D01*
X133865596Y-97662781D01*
X133662781Y-97865596D01*
X133651573Y-97875526D01*
X133425782Y-98052422D01*
X133413459Y-98060928D01*
X133167995Y-98209316D01*
X133154736Y-98216275D01*
X132893168Y-98333997D01*
X132879167Y-98339306D01*
X132605336Y-98424635D01*
X132590798Y-98428219D01*
X132308659Y-98479923D01*
X132293794Y-98481728D01*
X132003736Y-98499274D01*
X131996249Y-98499500D01*
X119642784Y-98499500D01*
X119575745Y-98479815D01*
X119529990Y-98427011D01*
X119520046Y-98357853D01*
X119549071Y-98294297D01*
X119555103Y-98287819D01*
X119636635Y-98206286D01*
X119636636Y-98206285D01*
X119636637Y-98206284D01*
X119636640Y-98206281D01*
X119746131Y-98042414D01*
X119821551Y-97860336D01*
X119860000Y-97667040D01*
X119860000Y-97469960D01*
X119860000Y-97469957D01*
X119859999Y-97469955D01*
X119848761Y-97413459D01*
X119821551Y-97276664D01*
X119776538Y-97167995D01*
X119746132Y-97094587D01*
X119657394Y-96961780D01*
X119636640Y-96930719D01*
X119636638Y-96930717D01*
X119636636Y-96930714D01*
X119636635Y-96930713D01*
X119010428Y-96304508D01*
X118976943Y-96243185D01*
X118981927Y-96173494D01*
X119023798Y-96117560D01*
X119033001Y-96111295D01*
X119133656Y-96049212D01*
X119257712Y-95925156D01*
X119349814Y-95775834D01*
X119404999Y-95609297D01*
X119415500Y-95506509D01*
X119415499Y-94288514D01*
X120895000Y-94288514D01*
X120895000Y-94524485D01*
X120925799Y-94758414D01*
X120986870Y-94986337D01*
X121077160Y-95204319D01*
X121077165Y-95204328D01*
X121195144Y-95408671D01*
X121195145Y-95408672D01*
X121257721Y-95490223D01*
X122093958Y-94653987D01*
X122118978Y-94714390D01*
X122190112Y-94820851D01*
X122280649Y-94911388D01*
X122387110Y-94982522D01*
X122447511Y-95007541D01*
X121611275Y-95843777D01*
X121692827Y-95906354D01*
X121692828Y-95906355D01*
X121897171Y-96024334D01*
X121897180Y-96024339D01*
X122115163Y-96114629D01*
X122115161Y-96114629D01*
X122343085Y-96175700D01*
X122577014Y-96206499D01*
X122577029Y-96206500D01*
X122812971Y-96206500D01*
X122812985Y-96206499D01*
X123046914Y-96175700D01*
X123274837Y-96114629D01*
X123492819Y-96024339D01*
X123492828Y-96024334D01*
X123697181Y-95906350D01*
X123733200Y-95878711D01*
X130149500Y-95878711D01*
X130149500Y-96121288D01*
X130181161Y-96361785D01*
X130243947Y-96596104D01*
X130312770Y-96762256D01*
X130336776Y-96820212D01*
X130458064Y-97030289D01*
X130458066Y-97030292D01*
X130458067Y-97030293D01*
X130605733Y-97222736D01*
X130605739Y-97222743D01*
X130777256Y-97394260D01*
X130777263Y-97394266D01*
X130818336Y-97425782D01*
X130969711Y-97541936D01*
X131179788Y-97663224D01*
X131403900Y-97756054D01*
X131638211Y-97818838D01*
X131818586Y-97842584D01*
X131878711Y-97850500D01*
X131878712Y-97850500D01*
X132121289Y-97850500D01*
X132169388Y-97844167D01*
X132361789Y-97818838D01*
X132596100Y-97756054D01*
X132820212Y-97663224D01*
X133030289Y-97541936D01*
X133222738Y-97394265D01*
X133394265Y-97222738D01*
X133541936Y-97030289D01*
X133663224Y-96820212D01*
X133756054Y-96596100D01*
X133818838Y-96361789D01*
X133850500Y-96121288D01*
X133850500Y-95878712D01*
X133818838Y-95638211D01*
X133756054Y-95403900D01*
X133663224Y-95179788D01*
X133541936Y-94969711D01*
X133394265Y-94777262D01*
X133394260Y-94777256D01*
X133222743Y-94605739D01*
X133222736Y-94605733D01*
X133030293Y-94458067D01*
X133030292Y-94458066D01*
X133030289Y-94458064D01*
X132858661Y-94358974D01*
X132820214Y-94336777D01*
X132820205Y-94336773D01*
X132596104Y-94243947D01*
X132361785Y-94181161D01*
X132121289Y-94149500D01*
X132121288Y-94149500D01*
X131878712Y-94149500D01*
X131878711Y-94149500D01*
X131638214Y-94181161D01*
X131403895Y-94243947D01*
X131179794Y-94336773D01*
X131179785Y-94336777D01*
X130969706Y-94458067D01*
X130777263Y-94605733D01*
X130777256Y-94605739D01*
X130605739Y-94777256D01*
X130605733Y-94777263D01*
X130458067Y-94969706D01*
X130336777Y-95179785D01*
X130336773Y-95179794D01*
X130243947Y-95403895D01*
X130181161Y-95638214D01*
X130149500Y-95878711D01*
X123733200Y-95878711D01*
X123778724Y-95843778D01*
X123778724Y-95843777D01*
X122942487Y-95007541D01*
X123002890Y-94982522D01*
X123109351Y-94911388D01*
X123199888Y-94820851D01*
X123271022Y-94714390D01*
X123296041Y-94653988D01*
X124132276Y-95490223D01*
X124132279Y-95490223D01*
X124194850Y-95408681D01*
X124312834Y-95204328D01*
X124312839Y-95204319D01*
X124403129Y-94986337D01*
X124464200Y-94758414D01*
X124494999Y-94524485D01*
X124495000Y-94524471D01*
X124495000Y-94288528D01*
X124494999Y-94288514D01*
X124464200Y-94054585D01*
X124403129Y-93826662D01*
X124312839Y-93608680D01*
X124312834Y-93608671D01*
X124194855Y-93404328D01*
X124194854Y-93404327D01*
X124132277Y-93322775D01*
X123296041Y-94159011D01*
X123271022Y-94098610D01*
X123199888Y-93992149D01*
X123109351Y-93901612D01*
X123002890Y-93830478D01*
X122942488Y-93805458D01*
X123778723Y-92969221D01*
X123697172Y-92906645D01*
X123697171Y-92906644D01*
X123492828Y-92788665D01*
X123492819Y-92788660D01*
X123274836Y-92698370D01*
X123274838Y-92698370D01*
X123046914Y-92637299D01*
X122812985Y-92606500D01*
X122577014Y-92606500D01*
X122343085Y-92637299D01*
X122115162Y-92698370D01*
X121897180Y-92788660D01*
X121897171Y-92788665D01*
X121692828Y-92906644D01*
X121692818Y-92906650D01*
X121611275Y-92969220D01*
X121611275Y-92969221D01*
X122447512Y-93805458D01*
X122387110Y-93830478D01*
X122280649Y-93901612D01*
X122190112Y-93992149D01*
X122118978Y-94098610D01*
X122093958Y-94159012D01*
X121257721Y-93322775D01*
X121257720Y-93322775D01*
X121195150Y-93404318D01*
X121195144Y-93404328D01*
X121077165Y-93608671D01*
X121077160Y-93608680D01*
X120986870Y-93826662D01*
X120925799Y-94054585D01*
X120895000Y-94288514D01*
X119415499Y-94288514D01*
X119415499Y-94072282D01*
X119435184Y-94005244D01*
X119451818Y-93984602D01*
X119636640Y-93799781D01*
X119663919Y-93758953D01*
X119746132Y-93635914D01*
X119821551Y-93453835D01*
X119847621Y-93322775D01*
X119860000Y-93260543D01*
X119860000Y-88665956D01*
X119821552Y-88472670D01*
X119821551Y-88472669D01*
X119821551Y-88472665D01*
X119788485Y-88392835D01*
X119746135Y-88290592D01*
X119746128Y-88290579D01*
X119636639Y-88126718D01*
X119636636Y-88126714D01*
X119497285Y-87987363D01*
X119497281Y-87987360D01*
X119333420Y-87877871D01*
X119333407Y-87877864D01*
X119151339Y-87802450D01*
X119151329Y-87802447D01*
X118958043Y-87764000D01*
X118958041Y-87764000D01*
X118760959Y-87764000D01*
X118760957Y-87764000D01*
X118567670Y-87802447D01*
X118567660Y-87802450D01*
X118385592Y-87877864D01*
X118385579Y-87877871D01*
X118221718Y-87987360D01*
X118221714Y-87987363D01*
X118082363Y-88126714D01*
X118082360Y-88126718D01*
X117972871Y-88290579D01*
X117972864Y-88290592D01*
X117897450Y-88472660D01*
X117897447Y-88472670D01*
X117859000Y-88665956D01*
X117859000Y-92482000D01*
X117839315Y-92549039D01*
X117786511Y-92594794D01*
X117735000Y-92606000D01*
X116514998Y-92606000D01*
X116514981Y-92606001D01*
X116412203Y-92616500D01*
X116412200Y-92616501D01*
X116245668Y-92671685D01*
X116245663Y-92671687D01*
X116096342Y-92763789D01*
X115972289Y-92887842D01*
X115880187Y-93037163D01*
X115880185Y-93037168D01*
X115873886Y-93056178D01*
X115825001Y-93203703D01*
X115825001Y-93203704D01*
X115825000Y-93203704D01*
X115814500Y-93306483D01*
X115814500Y-95506501D01*
X115814501Y-95506518D01*
X115825000Y-95609296D01*
X115825001Y-95609299D01*
X115834582Y-95638211D01*
X115880186Y-95775834D01*
X115972288Y-95925156D01*
X116096344Y-96049212D01*
X116245666Y-96141314D01*
X116412203Y-96196499D01*
X116503103Y-96205785D01*
X116567794Y-96232181D01*
X116607945Y-96289361D01*
X116614500Y-96329142D01*
X116614500Y-96422541D01*
X116614500Y-96422543D01*
X116614499Y-96422543D01*
X116652947Y-96615829D01*
X116652950Y-96615839D01*
X116728364Y-96797907D01*
X116728371Y-96797920D01*
X116837859Y-96961780D01*
X116837860Y-96961781D01*
X116837861Y-96961782D01*
X116977218Y-97101139D01*
X116977219Y-97101139D01*
X116984286Y-97108206D01*
X116984285Y-97108206D01*
X116984289Y-97108209D01*
X118163897Y-98287819D01*
X118197382Y-98349142D01*
X118192398Y-98418834D01*
X118150526Y-98474767D01*
X118085062Y-98499184D01*
X118076216Y-98499500D01*
X107830783Y-98499500D01*
X107763744Y-98479815D01*
X107717989Y-98427011D01*
X107708045Y-98357853D01*
X107737070Y-98294297D01*
X107743101Y-98287819D01*
X107765614Y-98265305D01*
X108092778Y-97938141D01*
X108092782Y-97938139D01*
X108232139Y-97798782D01*
X108341632Y-97634914D01*
X108417051Y-97452835D01*
X108428702Y-97394265D01*
X108436275Y-97356188D01*
X108455500Y-97259541D01*
X108455500Y-96329142D01*
X108475185Y-96262103D01*
X108527989Y-96216348D01*
X108566897Y-96205784D01*
X108657797Y-96196499D01*
X108824334Y-96141314D01*
X108973656Y-96049212D01*
X109097712Y-95925156D01*
X109189814Y-95775834D01*
X109244999Y-95609297D01*
X109255500Y-95506509D01*
X109255499Y-94288514D01*
X110735000Y-94288514D01*
X110735000Y-94524485D01*
X110765799Y-94758414D01*
X110826870Y-94986337D01*
X110917160Y-95204319D01*
X110917165Y-95204328D01*
X111035144Y-95408671D01*
X111035145Y-95408672D01*
X111097721Y-95490223D01*
X111933958Y-94653987D01*
X111958978Y-94714390D01*
X112030112Y-94820851D01*
X112120649Y-94911388D01*
X112227110Y-94982522D01*
X112287511Y-95007541D01*
X111451275Y-95843777D01*
X111532827Y-95906354D01*
X111532828Y-95906355D01*
X111737171Y-96024334D01*
X111737180Y-96024339D01*
X111955163Y-96114629D01*
X111955161Y-96114629D01*
X112183085Y-96175700D01*
X112417014Y-96206499D01*
X112417029Y-96206500D01*
X112652971Y-96206500D01*
X112652985Y-96206499D01*
X112886914Y-96175700D01*
X113114837Y-96114629D01*
X113332819Y-96024339D01*
X113332828Y-96024334D01*
X113537181Y-95906350D01*
X113618723Y-95843779D01*
X113618723Y-95843776D01*
X112782487Y-95007541D01*
X112842890Y-94982522D01*
X112949351Y-94911388D01*
X113039888Y-94820851D01*
X113111022Y-94714390D01*
X113136041Y-94653987D01*
X113972276Y-95490223D01*
X113972279Y-95490223D01*
X114034850Y-95408681D01*
X114152834Y-95204328D01*
X114152839Y-95204319D01*
X114243129Y-94986337D01*
X114304200Y-94758414D01*
X114334999Y-94524485D01*
X114335000Y-94524471D01*
X114335000Y-94288528D01*
X114334999Y-94288514D01*
X114304200Y-94054585D01*
X114243129Y-93826662D01*
X114152839Y-93608680D01*
X114152834Y-93608671D01*
X114034855Y-93404328D01*
X114034854Y-93404327D01*
X113972277Y-93322775D01*
X113136041Y-94159011D01*
X113111022Y-94098610D01*
X113039888Y-93992149D01*
X112949351Y-93901612D01*
X112842890Y-93830478D01*
X112782488Y-93805458D01*
X113618723Y-92969221D01*
X113537172Y-92906645D01*
X113537171Y-92906644D01*
X113332828Y-92788665D01*
X113332819Y-92788660D01*
X113114836Y-92698370D01*
X113114838Y-92698370D01*
X112886914Y-92637299D01*
X112652985Y-92606500D01*
X112417014Y-92606500D01*
X112183085Y-92637299D01*
X111955162Y-92698370D01*
X111737180Y-92788660D01*
X111737171Y-92788665D01*
X111532828Y-92906644D01*
X111532818Y-92906650D01*
X111451275Y-92969220D01*
X111451275Y-92969221D01*
X112287512Y-93805458D01*
X112227110Y-93830478D01*
X112120649Y-93901612D01*
X112030112Y-93992149D01*
X111958978Y-94098610D01*
X111933958Y-94159012D01*
X111097721Y-93322775D01*
X111097720Y-93322775D01*
X111035150Y-93404318D01*
X111035144Y-93404328D01*
X110917165Y-93608671D01*
X110917160Y-93608680D01*
X110826870Y-93826662D01*
X110765799Y-94054585D01*
X110735000Y-94288514D01*
X109255499Y-94288514D01*
X109255499Y-93306492D01*
X109244999Y-93203703D01*
X109189814Y-93037166D01*
X109097712Y-92887844D01*
X108973656Y-92763788D01*
X108867596Y-92698370D01*
X108824336Y-92671687D01*
X108824331Y-92671685D01*
X108814179Y-92668321D01*
X108657797Y-92616501D01*
X108657795Y-92616500D01*
X108555016Y-92606000D01*
X108555009Y-92606000D01*
X107828985Y-92606000D01*
X107761946Y-92586315D01*
X107716191Y-92533511D01*
X107706247Y-92464353D01*
X107735272Y-92400797D01*
X107741304Y-92394319D01*
X107824637Y-92310985D01*
X107824640Y-92310982D01*
X107934132Y-92147115D01*
X108009552Y-91965036D01*
X108048001Y-91771741D01*
X108048001Y-91574660D01*
X108048001Y-91574657D01*
X108048000Y-91574655D01*
X108009553Y-91381372D01*
X108009552Y-91381365D01*
X107941809Y-91217820D01*
X107934133Y-91199288D01*
X107934128Y-91199279D01*
X107824640Y-91035419D01*
X107824637Y-91035415D01*
X106077819Y-89288597D01*
X106044334Y-89227274D01*
X106041500Y-89200916D01*
X106041500Y-87421476D01*
X106061185Y-87354437D01*
X106113989Y-87308682D01*
X106141135Y-87301236D01*
X106140932Y-87300376D01*
X106148479Y-87298592D01*
X106148481Y-87298591D01*
X106148483Y-87298591D01*
X106283331Y-87248296D01*
X106398546Y-87162046D01*
X106484796Y-87046831D01*
X106535091Y-86911983D01*
X106541500Y-86852373D01*
X106541499Y-84851628D01*
X106535091Y-84792017D01*
X106526885Y-84770016D01*
X106484797Y-84657171D01*
X106484793Y-84657164D01*
X106398547Y-84541955D01*
X106398544Y-84541952D01*
X106283335Y-84455706D01*
X106283328Y-84455702D01*
X106255459Y-84445308D01*
X106199525Y-84403437D01*
X106175108Y-84337973D01*
X106189960Y-84269700D01*
X106198460Y-84256260D01*
X106331217Y-84073538D01*
X106435048Y-83869758D01*
X106467531Y-83769786D01*
X106505721Y-83652249D01*
X106505721Y-83652248D01*
X106505722Y-83652245D01*
X106541500Y-83426354D01*
X106541500Y-83197646D01*
X106505722Y-82971755D01*
X106505721Y-82971751D01*
X106505721Y-82971750D01*
X106435049Y-82754244D01*
X106390386Y-82666588D01*
X106331217Y-82550462D01*
X106196786Y-82365434D01*
X106035066Y-82203714D01*
X105950134Y-82142007D01*
X105907470Y-82086678D01*
X105901491Y-82017064D01*
X105934097Y-81955269D01*
X105950137Y-81941371D01*
X106034739Y-81879905D01*
X106196402Y-81718242D01*
X106330788Y-81533276D01*
X106434582Y-81329570D01*
X106505234Y-81112128D01*
X106519509Y-81022000D01*
X105531748Y-81022000D01*
X105553518Y-80984292D01*
X105591000Y-80844409D01*
X105591000Y-80699591D01*
X105553518Y-80559708D01*
X105531748Y-80522000D01*
X106519509Y-80522000D01*
X106505234Y-80431871D01*
X106455994Y-80280329D01*
X106453999Y-80210488D01*
X106490079Y-80150655D01*
X106526473Y-80127449D01*
X106625007Y-80086635D01*
X106625007Y-80086634D01*
X106625014Y-80086632D01*
X106788882Y-79977139D01*
X106928239Y-79837782D01*
X107037732Y-79673914D01*
X107113151Y-79491835D01*
X107135408Y-79379942D01*
X107151600Y-79298543D01*
X107151600Y-67232982D01*
X107171285Y-67165943D01*
X107187919Y-67145301D01*
X107719401Y-66613819D01*
X107780724Y-66580334D01*
X107807082Y-66577500D01*
X109074400Y-66577500D01*
X109141439Y-66597185D01*
X109187194Y-66649989D01*
X109198400Y-66701500D01*
X109198400Y-66831946D01*
X109229161Y-66986589D01*
X109229164Y-66986601D01*
X109289502Y-67132272D01*
X109289506Y-67132279D01*
X109327502Y-67189144D01*
X109348380Y-67255821D01*
X109348400Y-67258035D01*
X109348400Y-72911175D01*
X109328715Y-72978214D01*
X109275911Y-73023969D01*
X109206753Y-73033913D01*
X109143197Y-73004888D01*
X109109839Y-72958627D01*
X109050897Y-72816327D01*
X109050890Y-72816314D01*
X108963289Y-72685211D01*
X108963286Y-72685207D01*
X108851792Y-72573713D01*
X108851788Y-72573710D01*
X108720685Y-72486109D01*
X108720672Y-72486102D01*
X108575001Y-72425764D01*
X108574989Y-72425761D01*
X108420345Y-72395000D01*
X108420342Y-72395000D01*
X108262658Y-72395000D01*
X108262655Y-72395000D01*
X108108010Y-72425761D01*
X108107998Y-72425764D01*
X107962327Y-72486102D01*
X107962314Y-72486109D01*
X107831211Y-72573710D01*
X107831207Y-72573713D01*
X107719713Y-72685207D01*
X107719710Y-72685211D01*
X107632109Y-72816314D01*
X107632102Y-72816327D01*
X107571764Y-72961998D01*
X107571761Y-72962010D01*
X107541000Y-73116653D01*
X107541000Y-73274346D01*
X107571761Y-73428989D01*
X107571764Y-73429001D01*
X107632102Y-73574672D01*
X107632106Y-73574679D01*
X107670102Y-73631544D01*
X107690980Y-73698221D01*
X107691000Y-73700435D01*
X107691000Y-81475569D01*
X107708060Y-81561332D01*
X107715999Y-81601244D01*
X107755348Y-81696242D01*
X107765035Y-81719627D01*
X107772291Y-81730486D01*
X107836226Y-81826173D01*
X107836227Y-81826174D01*
X108773704Y-82763650D01*
X108807189Y-82824973D01*
X108803955Y-82889647D01*
X108777277Y-82971755D01*
X108741500Y-83197646D01*
X108741500Y-83426353D01*
X108777278Y-83652246D01*
X108777278Y-83652249D01*
X108847950Y-83869755D01*
X108873607Y-83920109D01*
X108951783Y-84073538D01*
X109084525Y-84256242D01*
X109108005Y-84322046D01*
X109092180Y-84390100D01*
X109042074Y-84438795D01*
X109027541Y-84445308D01*
X108999670Y-84455703D01*
X108999664Y-84455706D01*
X108884455Y-84541952D01*
X108884452Y-84541955D01*
X108798206Y-84657164D01*
X108798202Y-84657171D01*
X108747908Y-84792017D01*
X108743865Y-84829628D01*
X108741501Y-84851623D01*
X108741500Y-84851635D01*
X108741500Y-86852370D01*
X108741501Y-86852376D01*
X108747908Y-86911983D01*
X108798202Y-87046828D01*
X108798206Y-87046835D01*
X108884452Y-87162044D01*
X108884455Y-87162047D01*
X108999664Y-87248293D01*
X108999671Y-87248297D01*
X109134517Y-87298591D01*
X109134516Y-87298591D01*
X109141444Y-87299335D01*
X109194127Y-87305000D01*
X109745718Y-87304999D01*
X109812756Y-87324683D01*
X109858511Y-87377487D01*
X109868455Y-87446646D01*
X109839430Y-87510202D01*
X109833398Y-87516680D01*
X109223363Y-88126715D01*
X109223360Y-88126719D01*
X109113872Y-88290579D01*
X109113867Y-88290589D01*
X109038449Y-88472663D01*
X109038447Y-88472671D01*
X109000000Y-88665955D01*
X109000000Y-88863044D01*
X109038447Y-89056328D01*
X109038449Y-89056336D01*
X109113867Y-89238410D01*
X109113872Y-89238420D01*
X109223360Y-89402280D01*
X109223363Y-89402284D01*
X109362715Y-89541636D01*
X109362719Y-89541639D01*
X109526579Y-89651127D01*
X109526583Y-89651129D01*
X109526586Y-89651131D01*
X109708664Y-89726551D01*
X109901955Y-89764999D01*
X109901958Y-89765000D01*
X109901960Y-89765000D01*
X110099042Y-89765000D01*
X110099043Y-89764999D01*
X110292336Y-89726551D01*
X110474414Y-89651131D01*
X110638281Y-89541639D01*
X111636901Y-88543019D01*
X111698224Y-88509534D01*
X111724582Y-88506700D01*
X115541543Y-88506700D01*
X115712619Y-88472670D01*
X115734835Y-88468251D01*
X115916914Y-88392832D01*
X116080782Y-88283339D01*
X116220139Y-88143982D01*
X116329632Y-87980114D01*
X116405051Y-87798035D01*
X116417632Y-87734782D01*
X116443500Y-87604743D01*
X116443500Y-87421476D01*
X116463185Y-87354437D01*
X116515989Y-87308682D01*
X116543135Y-87301236D01*
X116542932Y-87300376D01*
X116550479Y-87298592D01*
X116550481Y-87298591D01*
X116550483Y-87298591D01*
X116685331Y-87248296D01*
X116800546Y-87162046D01*
X116886796Y-87046831D01*
X116937091Y-86911983D01*
X116943500Y-86852373D01*
X116943499Y-84851628D01*
X116937091Y-84792017D01*
X116928885Y-84770016D01*
X116886797Y-84657171D01*
X116886793Y-84657164D01*
X116800547Y-84541955D01*
X116800544Y-84541952D01*
X116685335Y-84455706D01*
X116685328Y-84455702D01*
X116657459Y-84445308D01*
X116601525Y-84403437D01*
X116577108Y-84337973D01*
X116591960Y-84269700D01*
X116600460Y-84256260D01*
X116733217Y-84073538D01*
X116837048Y-83869758D01*
X116869531Y-83769786D01*
X116907721Y-83652249D01*
X116907721Y-83652248D01*
X116907722Y-83652245D01*
X116943500Y-83426354D01*
X116943500Y-83197646D01*
X116924663Y-83078713D01*
X118522500Y-83078713D01*
X118522500Y-83291286D01*
X118543892Y-83426354D01*
X118555754Y-83501243D01*
X118597669Y-83630245D01*
X118621444Y-83703414D01*
X118717951Y-83892820D01*
X118842890Y-84064786D01*
X118981705Y-84203601D01*
X119015190Y-84264924D01*
X119010206Y-84334616D01*
X118968334Y-84390549D01*
X118959121Y-84396821D01*
X118804342Y-84492289D01*
X118680289Y-84616342D01*
X118588187Y-84765663D01*
X118588185Y-84765668D01*
X118586744Y-84770017D01*
X118533001Y-84932203D01*
X118533001Y-84932204D01*
X118533000Y-84932204D01*
X118522500Y-85034983D01*
X118522500Y-86335001D01*
X118522501Y-86335018D01*
X118533000Y-86437796D01*
X118533001Y-86437799D01*
X118581795Y-86585048D01*
X118588186Y-86604334D01*
X118680288Y-86753656D01*
X118804344Y-86877712D01*
X118953666Y-86969814D01*
X119120203Y-87024999D01*
X119222991Y-87035500D01*
X120773008Y-87035499D01*
X120875797Y-87024999D01*
X121042334Y-86969814D01*
X121191656Y-86877712D01*
X121315712Y-86753656D01*
X121407814Y-86604334D01*
X121462999Y-86437797D01*
X121473500Y-86335009D01*
X121473499Y-85034992D01*
X121462999Y-84932203D01*
X121407814Y-84765666D01*
X121315712Y-84616344D01*
X121191656Y-84492288D01*
X121042334Y-84400186D01*
X121042333Y-84400185D01*
X121036878Y-84396821D01*
X120990154Y-84344873D01*
X120978931Y-84275910D01*
X121006775Y-84211828D01*
X121014272Y-84203623D01*
X121153104Y-84064792D01*
X121278051Y-83892816D01*
X121374557Y-83703412D01*
X121440246Y-83501243D01*
X121473500Y-83291287D01*
X121473500Y-83078713D01*
X121440246Y-82868757D01*
X121374557Y-82666588D01*
X121278051Y-82477184D01*
X121278049Y-82477181D01*
X121278048Y-82477179D01*
X121153109Y-82305213D01*
X121002790Y-82154894D01*
X121002785Y-82154890D01*
X120837781Y-82035008D01*
X120795115Y-81979678D01*
X120789136Y-81910065D01*
X120821741Y-81848270D01*
X120837781Y-81834371D01*
X121002466Y-81714721D01*
X121152723Y-81564464D01*
X121152727Y-81564459D01*
X121277620Y-81392557D01*
X121374095Y-81203217D01*
X121439757Y-81001129D01*
X121439757Y-81001126D01*
X121450231Y-80935000D01*
X120402146Y-80935000D01*
X120440630Y-80868343D01*
X120473000Y-80747535D01*
X120473000Y-80622465D01*
X120440630Y-80501657D01*
X120402146Y-80435000D01*
X121450231Y-80435000D01*
X121439757Y-80368873D01*
X121439757Y-80368870D01*
X121374095Y-80166782D01*
X121277620Y-79977442D01*
X121152727Y-79805540D01*
X121152723Y-79805535D01*
X121002464Y-79655276D01*
X121002459Y-79655272D01*
X120830557Y-79530379D01*
X120641217Y-79433904D01*
X120439128Y-79368242D01*
X120248000Y-79337969D01*
X120248000Y-80280854D01*
X120181343Y-80242370D01*
X120060535Y-80210000D01*
X119935465Y-80210000D01*
X119814657Y-80242370D01*
X119748000Y-80280854D01*
X119748000Y-79337969D01*
X119556872Y-79368242D01*
X119556869Y-79368242D01*
X119354782Y-79433904D01*
X119165442Y-79530379D01*
X118993540Y-79655272D01*
X118993535Y-79655276D01*
X118843276Y-79805535D01*
X118843272Y-79805540D01*
X118718379Y-79977442D01*
X118621904Y-80166782D01*
X118556242Y-80368870D01*
X118556242Y-80368873D01*
X118545769Y-80435000D01*
X119593854Y-80435000D01*
X119555370Y-80501657D01*
X119523000Y-80622465D01*
X119523000Y-80747535D01*
X119555370Y-80868343D01*
X119593854Y-80935000D01*
X118545769Y-80935000D01*
X118556242Y-81001126D01*
X118556242Y-81001129D01*
X118621904Y-81203217D01*
X118718379Y-81392557D01*
X118843272Y-81564459D01*
X118843276Y-81564464D01*
X118993535Y-81714723D01*
X118993540Y-81714727D01*
X119158218Y-81834372D01*
X119200884Y-81889701D01*
X119206863Y-81959315D01*
X119174258Y-82021110D01*
X119158218Y-82035008D01*
X118993214Y-82154890D01*
X118993209Y-82154894D01*
X118842890Y-82305213D01*
X118717951Y-82477179D01*
X118621444Y-82666585D01*
X118555753Y-82868760D01*
X118522500Y-83078713D01*
X116924663Y-83078713D01*
X116907722Y-82971755D01*
X116907721Y-82971751D01*
X116907721Y-82971750D01*
X116837049Y-82754244D01*
X116792386Y-82666588D01*
X116733217Y-82550462D01*
X116598786Y-82365434D01*
X116437066Y-82203714D01*
X116352134Y-82142007D01*
X116309470Y-82086678D01*
X116303491Y-82017064D01*
X116336097Y-81955269D01*
X116352137Y-81941371D01*
X116436739Y-81879905D01*
X116598402Y-81718242D01*
X116732788Y-81533276D01*
X116836582Y-81329570D01*
X116907234Y-81112128D01*
X116921509Y-81022000D01*
X115933748Y-81022000D01*
X115955518Y-80984292D01*
X115993000Y-80844409D01*
X115993000Y-80699591D01*
X115955518Y-80559708D01*
X115933748Y-80522000D01*
X116921509Y-80522000D01*
X116916672Y-80491463D01*
X116916672Y-80491461D01*
X116907234Y-80431872D01*
X116907234Y-80431871D01*
X116836582Y-80214429D01*
X116732788Y-80010723D01*
X116598402Y-79825757D01*
X116436742Y-79664097D01*
X116251776Y-79529711D01*
X116048068Y-79425917D01*
X115830625Y-79355265D01*
X115830626Y-79355265D01*
X115693000Y-79333467D01*
X115693000Y-80281252D01*
X115655292Y-80259482D01*
X115515409Y-80222000D01*
X115370591Y-80222000D01*
X115230708Y-80259482D01*
X115193000Y-80281252D01*
X115193000Y-79333467D01*
X115055374Y-79355265D01*
X114837931Y-79425917D01*
X114634223Y-79529711D01*
X114449257Y-79664097D01*
X114287597Y-79825757D01*
X114153211Y-80010723D01*
X114049417Y-80214431D01*
X113978765Y-80431874D01*
X113978765Y-80431875D01*
X113949025Y-80619642D01*
X113919095Y-80682777D01*
X113859784Y-80719708D01*
X113789921Y-80718710D01*
X113738871Y-80687925D01*
X110685719Y-77634773D01*
X110652234Y-77573450D01*
X110649400Y-77547092D01*
X110649400Y-67258035D01*
X110669085Y-67190996D01*
X110670266Y-67189190D01*
X110708294Y-67132279D01*
X110708582Y-67131585D01*
X110768635Y-66986601D01*
X110768637Y-66986597D01*
X110799400Y-66831942D01*
X110799400Y-66701500D01*
X110819085Y-66634461D01*
X110871889Y-66588706D01*
X110923400Y-66577500D01*
X111596075Y-66577500D01*
X111663114Y-66597185D01*
X111708869Y-66649989D01*
X111718813Y-66719147D01*
X111710637Y-66748950D01*
X111685763Y-66809003D01*
X111685762Y-66809006D01*
X111685762Y-66809007D01*
X111685761Y-66809010D01*
X111655000Y-66963653D01*
X111655000Y-67121346D01*
X111685761Y-67275989D01*
X111685764Y-67276001D01*
X111746102Y-67421672D01*
X111746109Y-67421685D01*
X111833710Y-67552788D01*
X111833713Y-67552792D01*
X111945207Y-67664286D01*
X111945211Y-67664289D01*
X112076314Y-67751890D01*
X112076327Y-67751897D01*
X112163730Y-67788099D01*
X112222003Y-67812237D01*
X112260625Y-67819919D01*
X112289078Y-67825579D01*
X112350989Y-67857963D01*
X112352568Y-67859515D01*
X119802325Y-75309272D01*
X119802332Y-75309278D01*
X119902618Y-75376286D01*
X119908874Y-75380466D01*
X119978221Y-75409189D01*
X120027256Y-75429501D01*
X120027259Y-75429501D01*
X120027260Y-75429502D01*
X120152928Y-75454500D01*
X120152931Y-75454500D01*
X120281069Y-75454500D01*
X121115265Y-75454500D01*
X121182304Y-75474185D01*
X121184109Y-75475366D01*
X121241021Y-75513394D01*
X121241023Y-75513395D01*
X121241027Y-75513397D01*
X121373847Y-75568412D01*
X121386703Y-75573737D01*
X121541353Y-75604499D01*
X121541356Y-75604500D01*
X121541358Y-75604500D01*
X121699044Y-75604500D01*
X121699045Y-75604499D01*
X121853697Y-75573737D01*
X121999379Y-75513394D01*
X122130489Y-75425789D01*
X122241989Y-75314289D01*
X122329594Y-75183179D01*
X122389937Y-75037497D01*
X122420700Y-74882842D01*
X122420700Y-74725158D01*
X122420700Y-74725155D01*
X122420699Y-74725153D01*
X122389937Y-74570503D01*
X122373817Y-74531585D01*
X122329597Y-74424827D01*
X122329590Y-74424814D01*
X122241989Y-74293711D01*
X122241986Y-74293707D01*
X122130492Y-74182213D01*
X122130488Y-74182210D01*
X121999385Y-74094609D01*
X121999372Y-74094602D01*
X121853701Y-74034264D01*
X121853691Y-74034261D01*
X121764324Y-74016485D01*
X121764323Y-74016484D01*
X121699045Y-74003500D01*
X121699042Y-74003500D01*
X121541358Y-74003500D01*
X121541355Y-74003500D01*
X121386710Y-74034261D01*
X121386698Y-74034264D01*
X121241027Y-74094602D01*
X121241020Y-74094606D01*
X121217258Y-74110484D01*
X121184155Y-74132602D01*
X121117479Y-74153480D01*
X121115265Y-74153500D01*
X120537808Y-74153500D01*
X120470769Y-74133815D01*
X120450127Y-74117181D01*
X120233901Y-73900955D01*
X124270500Y-73900955D01*
X124270500Y-74098044D01*
X124308947Y-74291328D01*
X124308949Y-74291336D01*
X124384367Y-74473410D01*
X124384372Y-74473420D01*
X124493860Y-74637280D01*
X124493863Y-74637284D01*
X126681681Y-76825101D01*
X126715166Y-76886424D01*
X126718000Y-76912782D01*
X126718000Y-88863041D01*
X126718000Y-88863043D01*
X126717999Y-88863043D01*
X126756447Y-89056329D01*
X126756450Y-89056339D01*
X126831864Y-89238407D01*
X126831871Y-89238420D01*
X126941360Y-89402281D01*
X126941363Y-89402285D01*
X127080714Y-89541636D01*
X127080718Y-89541639D01*
X127244579Y-89651128D01*
X127244592Y-89651135D01*
X127426660Y-89726549D01*
X127426665Y-89726551D01*
X127426669Y-89726551D01*
X127426670Y-89726552D01*
X127619956Y-89765000D01*
X127619959Y-89765000D01*
X127817043Y-89765000D01*
X127947082Y-89739132D01*
X128010335Y-89726551D01*
X128192414Y-89651132D01*
X128356282Y-89541639D01*
X128495639Y-89402282D01*
X128605132Y-89238414D01*
X128680551Y-89056335D01*
X128693132Y-88993082D01*
X128719000Y-88863043D01*
X128719000Y-76348457D01*
X128718999Y-76348455D01*
X128709671Y-76301557D01*
X128689407Y-76199682D01*
X128680552Y-76155165D01*
X128622217Y-76014334D01*
X128605133Y-75973088D01*
X128605128Y-75973079D01*
X128495640Y-75809219D01*
X128495637Y-75809215D01*
X125908784Y-73222363D01*
X125908780Y-73222360D01*
X125744920Y-73112872D01*
X125744910Y-73112867D01*
X125562836Y-73037449D01*
X125562828Y-73037447D01*
X125369543Y-72999000D01*
X125369540Y-72999000D01*
X125172460Y-72999000D01*
X125172457Y-72999000D01*
X124979171Y-73037447D01*
X124979163Y-73037449D01*
X124797089Y-73112867D01*
X124797079Y-73112872D01*
X124633219Y-73222360D01*
X124633215Y-73222363D01*
X124493863Y-73361715D01*
X124493860Y-73361719D01*
X124384372Y-73525579D01*
X124384367Y-73525589D01*
X124308949Y-73707663D01*
X124308947Y-73707671D01*
X124270500Y-73900955D01*
X120233901Y-73900955D01*
X116389523Y-70056577D01*
X121558975Y-70056577D01*
X121664236Y-70100178D01*
X121664240Y-70100179D01*
X121809126Y-70128999D01*
X121809129Y-70129000D01*
X121956871Y-70129000D01*
X121956873Y-70128999D01*
X122101760Y-70100179D01*
X122101775Y-70100175D01*
X122207024Y-70056578D01*
X122207024Y-70056577D01*
X122738975Y-70056577D01*
X122844236Y-70100178D01*
X122844240Y-70100179D01*
X122989126Y-70128999D01*
X122989129Y-70129000D01*
X123136871Y-70129000D01*
X123136873Y-70128999D01*
X123281760Y-70100179D01*
X123281775Y-70100175D01*
X123387024Y-70056578D01*
X123387024Y-70056577D01*
X123063001Y-69732554D01*
X123063000Y-69732554D01*
X122738975Y-70056577D01*
X122207024Y-70056577D01*
X121883001Y-69732554D01*
X121883000Y-69732554D01*
X121558975Y-70056577D01*
X116389523Y-70056577D01*
X115638072Y-69305126D01*
X121133000Y-69305126D01*
X121133000Y-69452873D01*
X121161820Y-69597759D01*
X121161822Y-69597767D01*
X121205421Y-69703024D01*
X121529446Y-69379000D01*
X121529446Y-69378999D01*
X121509556Y-69359109D01*
X121783000Y-69359109D01*
X121783000Y-69398891D01*
X121798224Y-69435645D01*
X121826355Y-69463776D01*
X121863109Y-69479000D01*
X121902891Y-69479000D01*
X121939645Y-69463776D01*
X121967776Y-69435645D01*
X121983000Y-69398891D01*
X121983000Y-69379000D01*
X122236554Y-69379000D01*
X122473000Y-69615446D01*
X122709446Y-69379000D01*
X122689555Y-69359109D01*
X122963000Y-69359109D01*
X122963000Y-69398891D01*
X122978224Y-69435645D01*
X123006355Y-69463776D01*
X123043109Y-69479000D01*
X123082891Y-69479000D01*
X123119645Y-69463776D01*
X123147776Y-69435645D01*
X123163000Y-69398891D01*
X123163000Y-69378999D01*
X123416554Y-69378999D01*
X123416554Y-69379001D01*
X123740577Y-69703024D01*
X123740578Y-69703024D01*
X123784175Y-69597775D01*
X123784179Y-69597760D01*
X123812999Y-69452873D01*
X123813000Y-69452871D01*
X123813000Y-69305128D01*
X123812999Y-69305126D01*
X123784179Y-69160240D01*
X123784178Y-69160236D01*
X123740577Y-69054975D01*
X123416554Y-69378999D01*
X123163000Y-69378999D01*
X123163000Y-69359109D01*
X123147776Y-69322355D01*
X123119645Y-69294224D01*
X123082891Y-69279000D01*
X123043109Y-69279000D01*
X123006355Y-69294224D01*
X122978224Y-69322355D01*
X122963000Y-69359109D01*
X122689555Y-69359109D01*
X122473000Y-69142554D01*
X122236554Y-69379000D01*
X121983000Y-69379000D01*
X121983000Y-69359109D01*
X121967776Y-69322355D01*
X121939645Y-69294224D01*
X121902891Y-69279000D01*
X121863109Y-69279000D01*
X121826355Y-69294224D01*
X121798224Y-69322355D01*
X121783000Y-69359109D01*
X121509556Y-69359109D01*
X121205421Y-69054974D01*
X121205420Y-69054974D01*
X121161823Y-69160228D01*
X121161820Y-69160240D01*
X121133000Y-69305126D01*
X115638072Y-69305126D01*
X115121946Y-68789000D01*
X121646554Y-68789000D01*
X121883000Y-69025446D01*
X122119446Y-68789000D01*
X122826554Y-68789000D01*
X123063000Y-69025446D01*
X123299446Y-68789000D01*
X123063000Y-68552554D01*
X122826554Y-68789000D01*
X122119446Y-68789000D01*
X121883000Y-68552554D01*
X121646554Y-68789000D01*
X115121946Y-68789000D01*
X114458072Y-68125126D01*
X121133000Y-68125126D01*
X121133000Y-68272873D01*
X121161820Y-68417759D01*
X121161822Y-68417767D01*
X121205421Y-68523024D01*
X121529446Y-68199000D01*
X121529446Y-68198999D01*
X121509556Y-68179109D01*
X121783000Y-68179109D01*
X121783000Y-68218891D01*
X121798224Y-68255645D01*
X121826355Y-68283776D01*
X121863109Y-68299000D01*
X121902891Y-68299000D01*
X121939645Y-68283776D01*
X121967776Y-68255645D01*
X121983000Y-68218891D01*
X121983000Y-68199000D01*
X122236554Y-68199000D01*
X122473000Y-68435446D01*
X122709446Y-68199000D01*
X122689555Y-68179109D01*
X122963000Y-68179109D01*
X122963000Y-68218891D01*
X122978224Y-68255645D01*
X123006355Y-68283776D01*
X123043109Y-68299000D01*
X123082891Y-68299000D01*
X123119645Y-68283776D01*
X123147776Y-68255645D01*
X123163000Y-68218891D01*
X123163000Y-68198999D01*
X123416554Y-68198999D01*
X123416554Y-68199001D01*
X123740577Y-68523024D01*
X123740578Y-68523024D01*
X123784175Y-68417775D01*
X123784179Y-68417760D01*
X123812999Y-68272873D01*
X123813000Y-68272871D01*
X123813000Y-68125128D01*
X123812999Y-68125126D01*
X123784179Y-67980240D01*
X123784178Y-67980236D01*
X123740577Y-67874975D01*
X123416554Y-68198999D01*
X123163000Y-68198999D01*
X123163000Y-68179109D01*
X123147776Y-68142355D01*
X123119645Y-68114224D01*
X123082891Y-68099000D01*
X123043109Y-68099000D01*
X123006355Y-68114224D01*
X122978224Y-68142355D01*
X122963000Y-68179109D01*
X122689555Y-68179109D01*
X122473000Y-67962554D01*
X122236554Y-68199000D01*
X121983000Y-68199000D01*
X121983000Y-68179109D01*
X121967776Y-68142355D01*
X121939645Y-68114224D01*
X121902891Y-68099000D01*
X121863109Y-68099000D01*
X121826355Y-68114224D01*
X121798224Y-68142355D01*
X121783000Y-68179109D01*
X121509556Y-68179109D01*
X121205421Y-67874974D01*
X121205420Y-67874974D01*
X121161823Y-67980228D01*
X121161820Y-67980240D01*
X121133000Y-68125126D01*
X114458072Y-68125126D01*
X113854366Y-67521420D01*
X121558974Y-67521420D01*
X121558974Y-67521421D01*
X121883000Y-67845446D01*
X121883001Y-67845446D01*
X122207024Y-67521421D01*
X122207022Y-67521420D01*
X122738974Y-67521420D01*
X122738974Y-67521421D01*
X123063000Y-67845446D01*
X123063001Y-67845446D01*
X123387024Y-67521421D01*
X123281767Y-67477822D01*
X123281759Y-67477820D01*
X123136872Y-67449000D01*
X122989128Y-67449000D01*
X122844240Y-67477820D01*
X122844228Y-67477823D01*
X122738974Y-67521420D01*
X122207022Y-67521420D01*
X122101767Y-67477822D01*
X122101759Y-67477820D01*
X121956872Y-67449000D01*
X121809128Y-67449000D01*
X121664240Y-67477820D01*
X121664228Y-67477823D01*
X121558974Y-67521420D01*
X113854366Y-67521420D01*
X113272515Y-66939569D01*
X113265045Y-66927076D01*
X113256339Y-66919636D01*
X113247212Y-66897254D01*
X113241459Y-66887632D01*
X113239743Y-66881932D01*
X113225237Y-66809003D01*
X113197977Y-66743193D01*
X113196187Y-66737244D01*
X113195990Y-66708280D01*
X113192894Y-66679483D01*
X113195755Y-66673766D01*
X113195712Y-66667376D01*
X113211202Y-66642906D01*
X113224169Y-66617004D01*
X113229666Y-66613742D01*
X113233085Y-66608342D01*
X113259349Y-66596130D01*
X113284258Y-66581352D01*
X113293681Y-66580168D01*
X113296442Y-66578885D01*
X113300010Y-66579373D01*
X113314924Y-66577500D01*
X117109542Y-66577500D01*
X117140566Y-66571328D01*
X117206188Y-66558275D01*
X117302836Y-66539051D01*
X117356165Y-66516961D01*
X117484914Y-66463632D01*
X117648782Y-66354139D01*
X117788139Y-66214782D01*
X117788139Y-66214780D01*
X117798347Y-66204573D01*
X117798348Y-66204570D01*
X120431302Y-63571619D01*
X120492625Y-63538134D01*
X120518983Y-63535300D01*
X125519900Y-63535300D01*
X125586939Y-63554985D01*
X125632694Y-63607789D01*
X125643900Y-63659300D01*
X125643900Y-65528944D01*
X125682347Y-65722228D01*
X125682350Y-65722240D01*
X125700766Y-65766699D01*
X125700767Y-65766701D01*
X125757764Y-65904306D01*
X125757771Y-65904319D01*
X125867260Y-66068182D01*
X126010938Y-66211860D01*
X126010958Y-66211878D01*
X126109181Y-66310101D01*
X126142666Y-66371424D01*
X126145500Y-66397782D01*
X126145500Y-67134902D01*
X126125815Y-67201941D01*
X126109181Y-67222583D01*
X124953339Y-68378425D01*
X124892016Y-68411910D01*
X124889850Y-68412361D01*
X124734508Y-68443261D01*
X124734498Y-68443264D01*
X124588827Y-68503602D01*
X124588814Y-68503609D01*
X124457711Y-68591210D01*
X124457707Y-68591213D01*
X124346213Y-68702707D01*
X124346210Y-68702711D01*
X124258609Y-68833814D01*
X124258602Y-68833827D01*
X124198264Y-68979498D01*
X124198261Y-68979510D01*
X124167500Y-69134153D01*
X124167500Y-69291846D01*
X124198261Y-69446489D01*
X124198264Y-69446501D01*
X124258602Y-69592172D01*
X124258609Y-69592185D01*
X124346210Y-69723288D01*
X124346213Y-69723292D01*
X124457707Y-69834786D01*
X124457711Y-69834789D01*
X124588814Y-69922390D01*
X124588827Y-69922397D01*
X124734498Y-69982735D01*
X124734503Y-69982737D01*
X124889153Y-70013499D01*
X124889156Y-70013500D01*
X124889158Y-70013500D01*
X125046844Y-70013500D01*
X125046845Y-70013499D01*
X125201497Y-69982737D01*
X125347179Y-69922394D01*
X125478289Y-69834789D01*
X125589789Y-69723289D01*
X125677394Y-69592179D01*
X125737737Y-69446497D01*
X125765858Y-69305126D01*
X125768638Y-69291150D01*
X125801023Y-69229239D01*
X125802517Y-69227717D01*
X127226520Y-67803716D01*
X127305577Y-67666784D01*
X127346501Y-67514057D01*
X127346501Y-67355942D01*
X127346501Y-67348347D01*
X127346500Y-67348329D01*
X127346500Y-66397783D01*
X127366185Y-66330744D01*
X127382819Y-66310102D01*
X127523136Y-66169784D01*
X127523139Y-66169781D01*
X127632631Y-66005914D01*
X127708051Y-65823836D01*
X127746500Y-65630540D01*
X127746500Y-65433460D01*
X127746500Y-65433457D01*
X127746499Y-65433455D01*
X127708052Y-65240171D01*
X127708051Y-65240164D01*
X127654339Y-65110492D01*
X127644900Y-65063039D01*
X127644900Y-62436256D01*
X127606452Y-62242970D01*
X127606451Y-62242969D01*
X127606451Y-62242965D01*
X127606449Y-62242960D01*
X127531035Y-62060892D01*
X127531028Y-62060879D01*
X127421539Y-61897018D01*
X127421536Y-61897014D01*
X127282185Y-61757663D01*
X127282181Y-61757660D01*
X127118320Y-61648171D01*
X127118307Y-61648164D01*
X126936239Y-61572750D01*
X126936229Y-61572747D01*
X126742943Y-61534300D01*
X126742941Y-61534300D01*
X120151740Y-61534300D01*
X119954659Y-61534300D01*
X119954656Y-61534300D01*
X119761371Y-61572747D01*
X119761363Y-61572749D01*
X119712199Y-61593113D01*
X119712187Y-61593118D01*
X119708078Y-61594821D01*
X119579286Y-61648168D01*
X119516369Y-61690208D01*
X119509956Y-61694492D01*
X119509950Y-61694496D01*
X119415415Y-61757662D01*
X119415414Y-61757663D01*
X116632899Y-64540181D01*
X116571576Y-64573666D01*
X116545218Y-64576500D01*
X107647792Y-64576500D01*
X107580753Y-64556815D01*
X107560110Y-64540180D01*
X100358196Y-57338072D01*
X100358192Y-57338069D01*
X100194326Y-57228575D01*
X100178111Y-57221858D01*
X100012258Y-57153156D01*
X100012250Y-57153153D01*
X99818952Y-57114700D01*
X99818956Y-57114700D01*
X99621874Y-57114698D01*
X99621873Y-57114698D01*
X99573549Y-57124309D01*
X99428574Y-57153145D01*
X99246500Y-57228560D01*
X99246490Y-57228566D01*
X99082632Y-57338049D01*
X99082631Y-57338049D01*
X98943270Y-57477406D01*
X98833776Y-57641272D01*
X98833773Y-57641278D01*
X98758356Y-57823341D01*
X98758353Y-57823349D01*
X98719900Y-58016645D01*
X98719898Y-58213725D01*
X98758345Y-58407025D01*
X98833760Y-58589099D01*
X98833766Y-58589109D01*
X98946636Y-58758036D01*
X98944480Y-58759476D01*
X98967378Y-58813416D01*
X98955574Y-58882281D01*
X98931891Y-58915429D01*
X98887514Y-58959806D01*
X98887510Y-58959811D01*
X98799909Y-59090914D01*
X98799902Y-59090927D01*
X98739564Y-59236598D01*
X98739561Y-59236608D01*
X98726220Y-59303679D01*
X98693835Y-59365590D01*
X98692284Y-59367168D01*
X97983025Y-60076428D01*
X97983024Y-60076429D01*
X97914166Y-60179485D01*
X97914161Y-60179492D01*
X97911835Y-60182972D01*
X97862799Y-60301355D01*
X97862797Y-60301361D01*
X97837800Y-60427028D01*
X97837800Y-75862520D01*
X97818115Y-75929559D01*
X97765311Y-75975314D01*
X97696153Y-75985258D01*
X97689609Y-75984137D01*
X97528045Y-75952000D01*
X97528041Y-75952000D01*
X97330959Y-75952000D01*
X97330957Y-75952000D01*
X97137670Y-75990447D01*
X97137660Y-75990450D01*
X96955592Y-76065864D01*
X96955579Y-76065871D01*
X96791718Y-76175360D01*
X96791714Y-76175363D01*
X96652363Y-76314714D01*
X96652360Y-76314718D01*
X96542871Y-76478579D01*
X96542864Y-76478592D01*
X96467450Y-76660660D01*
X96467447Y-76660670D01*
X96429000Y-76853956D01*
X96429000Y-82797718D01*
X96409315Y-82864757D01*
X96356511Y-82910512D01*
X96287353Y-82920456D01*
X96223797Y-82891431D01*
X96217319Y-82885399D01*
X93628519Y-80296599D01*
X93595034Y-80235276D01*
X93592200Y-80208918D01*
X93592200Y-79951456D01*
X93553752Y-79758170D01*
X93553751Y-79758169D01*
X93553751Y-79758165D01*
X93550881Y-79751236D01*
X93478335Y-79576092D01*
X93478328Y-79576079D01*
X93368839Y-79412218D01*
X93368836Y-79412214D01*
X93229485Y-79272863D01*
X93229481Y-79272860D01*
X93065620Y-79163371D01*
X93065607Y-79163364D01*
X92883539Y-79087950D01*
X92883529Y-79087947D01*
X92690243Y-79049500D01*
X92690241Y-79049500D01*
X92000200Y-79049500D01*
X91979678Y-79043474D01*
X91958328Y-79042216D01*
X91940837Y-79032069D01*
X91933161Y-79029815D01*
X91927141Y-79025692D01*
X91921406Y-79021510D01*
X91919792Y-79019896D01*
X91755031Y-78900191D01*
X91733875Y-78872657D01*
X91712540Y-78844989D01*
X91712530Y-78844876D01*
X91712462Y-78844788D01*
X91709542Y-78810086D01*
X91706561Y-78775376D01*
X91706613Y-78775276D01*
X91706604Y-78775165D01*
X91722910Y-78744389D01*
X91739166Y-78713580D01*
X91739292Y-78713470D01*
X91739316Y-78713426D01*
X91739395Y-78713381D01*
X91755199Y-78699686D01*
X91919792Y-78580104D01*
X92070104Y-78429792D01*
X92070106Y-78429788D01*
X92070109Y-78429786D01*
X92195048Y-78257820D01*
X92195047Y-78257820D01*
X92195051Y-78257816D01*
X92291557Y-78068412D01*
X92357246Y-77866243D01*
X92390500Y-77656287D01*
X92390500Y-77443713D01*
X92357246Y-77233757D01*
X92291557Y-77031588D01*
X92195051Y-76842184D01*
X92195049Y-76842181D01*
X92195048Y-76842179D01*
X92070109Y-76670213D01*
X91919792Y-76519896D01*
X91919784Y-76519890D01*
X91755204Y-76400316D01*
X91712540Y-76344989D01*
X91706561Y-76275376D01*
X91739166Y-76213580D01*
X91755199Y-76199686D01*
X91919792Y-76080104D01*
X92070104Y-75929792D01*
X92070106Y-75929788D01*
X92070109Y-75929786D01*
X92195048Y-75757820D01*
X92195047Y-75757820D01*
X92195051Y-75757816D01*
X92291557Y-75568412D01*
X92357246Y-75366243D01*
X92390500Y-75156287D01*
X92390500Y-74943713D01*
X92357246Y-74733757D01*
X92291557Y-74531588D01*
X92195051Y-74342184D01*
X92195049Y-74342181D01*
X92195048Y-74342179D01*
X92070109Y-74170213D01*
X91919786Y-74019890D01*
X91747820Y-73894951D01*
X91558414Y-73798444D01*
X91558413Y-73798443D01*
X91558412Y-73798443D01*
X91356243Y-73732754D01*
X91356241Y-73732753D01*
X91356240Y-73732753D01*
X91194957Y-73707208D01*
X91146287Y-73699500D01*
X90683713Y-73699500D01*
X90635042Y-73707208D01*
X90473760Y-73732753D01*
X90271585Y-73798444D01*
X90082179Y-73894951D01*
X89910213Y-74019890D01*
X89759890Y-74170213D01*
X89634951Y-74342179D01*
X89538444Y-74531585D01*
X89472753Y-74733760D01*
X89439500Y-74943713D01*
X89439500Y-75156286D01*
X89464525Y-75314292D01*
X89472754Y-75366243D01*
X89520567Y-75513397D01*
X89538444Y-75568414D01*
X89634951Y-75757820D01*
X89759890Y-75929786D01*
X89910209Y-76080105D01*
X89910214Y-76080109D01*
X90074793Y-76199682D01*
X90117459Y-76255011D01*
X90123438Y-76324625D01*
X90090833Y-76386420D01*
X90074793Y-76400318D01*
X89910214Y-76519890D01*
X89910209Y-76519894D01*
X89759890Y-76670213D01*
X89634951Y-76842179D01*
X89538444Y-77031585D01*
X89472753Y-77233760D01*
X89463594Y-77291588D01*
X89439500Y-77443713D01*
X89439500Y-77656287D01*
X89472754Y-77866243D01*
X89534944Y-78057644D01*
X89538444Y-78068414D01*
X89634951Y-78257820D01*
X89759890Y-78429786D01*
X89910209Y-78580105D01*
X89910214Y-78580109D01*
X90074793Y-78699682D01*
X90117459Y-78755011D01*
X90123438Y-78824625D01*
X90090833Y-78886420D01*
X90074793Y-78900318D01*
X89910214Y-79019890D01*
X89910209Y-79019894D01*
X89759890Y-79170213D01*
X89634951Y-79342179D01*
X89538444Y-79531585D01*
X89472753Y-79733760D01*
X89439500Y-79943713D01*
X89439500Y-80156286D01*
X89455844Y-80259482D01*
X89472754Y-80366243D01*
X89516214Y-80500000D01*
X89538444Y-80568414D01*
X89634951Y-80757820D01*
X89759890Y-80929786D01*
X89910209Y-81080105D01*
X89910214Y-81080109D01*
X90074793Y-81199682D01*
X90117459Y-81255011D01*
X90123438Y-81324625D01*
X90090833Y-81386420D01*
X90074793Y-81400318D01*
X89910214Y-81519890D01*
X89910209Y-81519894D01*
X89759890Y-81670213D01*
X89634951Y-81842179D01*
X89538444Y-82031585D01*
X89472753Y-82233760D01*
X89439500Y-82443713D01*
X89439500Y-82656286D01*
X89472518Y-82864757D01*
X89472754Y-82866243D01*
X89507036Y-82971753D01*
X89538444Y-83068414D01*
X89634951Y-83257820D01*
X89759890Y-83429786D01*
X89898705Y-83568601D01*
X89932190Y-83629924D01*
X89927206Y-83699616D01*
X89885334Y-83755549D01*
X89876121Y-83761821D01*
X89721342Y-83857289D01*
X89597289Y-83981342D01*
X89505187Y-84130663D01*
X89505185Y-84130668D01*
X89493705Y-84165312D01*
X89450001Y-84297203D01*
X89450001Y-84297204D01*
X89450000Y-84297204D01*
X89439500Y-84399983D01*
X89439500Y-85700001D01*
X89439501Y-85700018D01*
X89450000Y-85802796D01*
X89450001Y-85802799D01*
X89498253Y-85948412D01*
X89505186Y-85969334D01*
X89597288Y-86118656D01*
X89721344Y-86242712D01*
X89870666Y-86334814D01*
X90037203Y-86389999D01*
X90139991Y-86400500D01*
X91690008Y-86400499D01*
X91792797Y-86389999D01*
X91959334Y-86334814D01*
X92108656Y-86242712D01*
X92232712Y-86118656D01*
X92324814Y-85969334D01*
X92379999Y-85802797D01*
X92390500Y-85700009D01*
X92390499Y-84399992D01*
X92389534Y-84390549D01*
X92379999Y-84297203D01*
X92379998Y-84297200D01*
X92359135Y-84234240D01*
X92324814Y-84130666D01*
X92232712Y-83981344D01*
X92108656Y-83857288D01*
X91959334Y-83765186D01*
X91959333Y-83765185D01*
X91953878Y-83761821D01*
X91907154Y-83709873D01*
X91895931Y-83640910D01*
X91923775Y-83576828D01*
X91931272Y-83568623D01*
X92070104Y-83429792D01*
X92085638Y-83408412D01*
X92195048Y-83257820D01*
X92195047Y-83257820D01*
X92195051Y-83257816D01*
X92291557Y-83068412D01*
X92357246Y-82866243D01*
X92390500Y-82656287D01*
X92390500Y-82443713D01*
X92357246Y-82233757D01*
X92334632Y-82164161D01*
X92332638Y-82094324D01*
X92368718Y-82034491D01*
X92431418Y-82003662D01*
X92500833Y-82011626D01*
X92540245Y-82038165D01*
X95844215Y-85342136D01*
X95844219Y-85342139D01*
X96008079Y-85451627D01*
X96008083Y-85451629D01*
X96008086Y-85451631D01*
X96190164Y-85527051D01*
X96383455Y-85565499D01*
X96383458Y-85565500D01*
X96559200Y-85565500D01*
X96626239Y-85585185D01*
X96671994Y-85637989D01*
X96683200Y-85689500D01*
X96683200Y-92482000D01*
X96663515Y-92549039D01*
X96610711Y-92594794D01*
X96559200Y-92606000D01*
X96194998Y-92606000D01*
X96194980Y-92606001D01*
X96092203Y-92616500D01*
X96092200Y-92616501D01*
X95925668Y-92671685D01*
X95925663Y-92671687D01*
X95776342Y-92763789D01*
X95652289Y-92887842D01*
X95560187Y-93037163D01*
X95560185Y-93037168D01*
X95553886Y-93056178D01*
X95505001Y-93203703D01*
X95505001Y-93203704D01*
X95505000Y-93203704D01*
X95494500Y-93306483D01*
X95494500Y-95506501D01*
X95494501Y-95506518D01*
X95505000Y-95609296D01*
X95505001Y-95609299D01*
X95514582Y-95638211D01*
X95560186Y-95775834D01*
X95652288Y-95925156D01*
X95776344Y-96049212D01*
X95925666Y-96141314D01*
X96092203Y-96196499D01*
X96194991Y-96207000D01*
X98395008Y-96206999D01*
X98497797Y-96196499D01*
X98664334Y-96141314D01*
X98813656Y-96049212D01*
X98937712Y-95925156D01*
X99029814Y-95775834D01*
X99084999Y-95609297D01*
X99095500Y-95506509D01*
X99095499Y-94288514D01*
X100575000Y-94288514D01*
X100575000Y-94524485D01*
X100605799Y-94758414D01*
X100666870Y-94986337D01*
X100757160Y-95204319D01*
X100757165Y-95204328D01*
X100875144Y-95408671D01*
X100875145Y-95408672D01*
X100937721Y-95490223D01*
X101773958Y-94653987D01*
X101798978Y-94714390D01*
X101870112Y-94820851D01*
X101960649Y-94911388D01*
X102067110Y-94982522D01*
X102127511Y-95007541D01*
X101291275Y-95843777D01*
X101372827Y-95906354D01*
X101372828Y-95906355D01*
X101577171Y-96024334D01*
X101577180Y-96024339D01*
X101795163Y-96114629D01*
X101795161Y-96114629D01*
X102023085Y-96175700D01*
X102257014Y-96206499D01*
X102257029Y-96206500D01*
X102492971Y-96206500D01*
X102492985Y-96206499D01*
X102726914Y-96175700D01*
X102954837Y-96114629D01*
X103172819Y-96024339D01*
X103172828Y-96024334D01*
X103377181Y-95906350D01*
X103458723Y-95843779D01*
X103458723Y-95843776D01*
X102622487Y-95007541D01*
X102682890Y-94982522D01*
X102789351Y-94911388D01*
X102879888Y-94820851D01*
X102951022Y-94714390D01*
X102976041Y-94653987D01*
X103812276Y-95490223D01*
X103812279Y-95490223D01*
X103874850Y-95408681D01*
X103992834Y-95204328D01*
X103992839Y-95204319D01*
X104083129Y-94986337D01*
X104144200Y-94758414D01*
X104174999Y-94524485D01*
X104175000Y-94524471D01*
X104175000Y-94288528D01*
X104174999Y-94288514D01*
X104144200Y-94054585D01*
X104083129Y-93826662D01*
X103992839Y-93608680D01*
X103992834Y-93608671D01*
X103874855Y-93404328D01*
X103874854Y-93404327D01*
X103812277Y-93322775D01*
X102976041Y-94159011D01*
X102951022Y-94098610D01*
X102879888Y-93992149D01*
X102789351Y-93901612D01*
X102682890Y-93830478D01*
X102622488Y-93805458D01*
X103458723Y-92969221D01*
X103377172Y-92906645D01*
X103377171Y-92906644D01*
X103172828Y-92788665D01*
X103172819Y-92788660D01*
X102954836Y-92698370D01*
X102954838Y-92698370D01*
X102726914Y-92637299D01*
X102492985Y-92606500D01*
X102257014Y-92606500D01*
X102023085Y-92637299D01*
X101795162Y-92698370D01*
X101577180Y-92788660D01*
X101577171Y-92788665D01*
X101372828Y-92906644D01*
X101372818Y-92906650D01*
X101291275Y-92969220D01*
X101291275Y-92969221D01*
X102127512Y-93805458D01*
X102067110Y-93830478D01*
X101960649Y-93901612D01*
X101870112Y-93992149D01*
X101798978Y-94098610D01*
X101773958Y-94159011D01*
X100937721Y-93322775D01*
X100937720Y-93322775D01*
X100875150Y-93404318D01*
X100875144Y-93404328D01*
X100757165Y-93608671D01*
X100757160Y-93608680D01*
X100666870Y-93826662D01*
X100605799Y-94054585D01*
X100575000Y-94288514D01*
X99095499Y-94288514D01*
X99095499Y-93306492D01*
X99084999Y-93203703D01*
X99029814Y-93037166D01*
X98937712Y-92887844D01*
X98813656Y-92763788D01*
X98813655Y-92763787D01*
X98743102Y-92720269D01*
X98696378Y-92668321D01*
X98684200Y-92614731D01*
X98684200Y-87406999D01*
X98703885Y-87339960D01*
X98756689Y-87294205D01*
X98808195Y-87282999D01*
X100887872Y-87282999D01*
X100947483Y-87276591D01*
X101082331Y-87226296D01*
X101197546Y-87140046D01*
X101283796Y-87024831D01*
X101334091Y-86889983D01*
X101340500Y-86830373D01*
X101340499Y-84829628D01*
X101334091Y-84770017D01*
X101332468Y-84765666D01*
X101283797Y-84635171D01*
X101283793Y-84635164D01*
X101197547Y-84519955D01*
X101197544Y-84519952D01*
X101082335Y-84433706D01*
X101082328Y-84433702D01*
X101054459Y-84423308D01*
X100998525Y-84381437D01*
X100974108Y-84315973D01*
X100988960Y-84247700D01*
X100997460Y-84234260D01*
X101130217Y-84051538D01*
X101234048Y-83847758D01*
X101261971Y-83761821D01*
X101304721Y-83630249D01*
X101304721Y-83630248D01*
X101304722Y-83630245D01*
X101340500Y-83404354D01*
X101340500Y-83175646D01*
X101304722Y-82949755D01*
X101304721Y-82949751D01*
X101304721Y-82949750D01*
X101234049Y-82732244D01*
X101234048Y-82732242D01*
X101130217Y-82528462D01*
X100995786Y-82343434D01*
X100834066Y-82181714D01*
X100749134Y-82120007D01*
X100706470Y-82064678D01*
X100700491Y-81995064D01*
X100733097Y-81933269D01*
X100749137Y-81919371D01*
X100833739Y-81857905D01*
X100995402Y-81696242D01*
X101129788Y-81511276D01*
X101233582Y-81307570D01*
X101304234Y-81090128D01*
X101318509Y-81000000D01*
X100330748Y-81000000D01*
X100352518Y-80962292D01*
X100390000Y-80822409D01*
X100390000Y-80677591D01*
X100352518Y-80537708D01*
X100330748Y-80500000D01*
X101318509Y-80500000D01*
X101304234Y-80409871D01*
X101233582Y-80192429D01*
X101129788Y-79988723D01*
X100995402Y-79803757D01*
X100833742Y-79642097D01*
X100648776Y-79507711D01*
X100445068Y-79403917D01*
X100227625Y-79333265D01*
X100227626Y-79333265D01*
X100090000Y-79311467D01*
X100090000Y-80259252D01*
X100052292Y-80237482D01*
X99912409Y-80200000D01*
X99767591Y-80200000D01*
X99627708Y-80237482D01*
X99590000Y-80259252D01*
X99590000Y-79311467D01*
X99452374Y-79333265D01*
X99301118Y-79382411D01*
X99231276Y-79384406D01*
X99171444Y-79348325D01*
X99140616Y-79285624D01*
X99138800Y-79264480D01*
X99138800Y-60811907D01*
X99158485Y-60744868D01*
X99175115Y-60724230D01*
X99612231Y-60287113D01*
X99673552Y-60253630D01*
X99675617Y-60253199D01*
X99742797Y-60239837D01*
X99888479Y-60179494D01*
X100019589Y-60091889D01*
X100063180Y-60048298D01*
X100124503Y-60014812D01*
X100194194Y-60019796D01*
X100238542Y-60048297D01*
X102653894Y-62463713D01*
X104591718Y-64401589D01*
X104625203Y-64462913D01*
X104620217Y-64532604D01*
X104578345Y-64588537D01*
X104551489Y-64603830D01*
X104438324Y-64650704D01*
X104438314Y-64650709D01*
X104307211Y-64738310D01*
X104307207Y-64738313D01*
X104195713Y-64849807D01*
X104195710Y-64849811D01*
X104108109Y-64980914D01*
X104108102Y-64980927D01*
X104047764Y-65126598D01*
X104047761Y-65126608D01*
X104034420Y-65193679D01*
X104002035Y-65255590D01*
X104000484Y-65257168D01*
X103154425Y-66103228D01*
X103154419Y-66103236D01*
X103105376Y-66176634D01*
X103105377Y-66176635D01*
X103083234Y-66209774D01*
X103034199Y-66328155D01*
X103034197Y-66328161D01*
X103009200Y-66453828D01*
X103009200Y-81994770D01*
X103017204Y-82035008D01*
X103027731Y-82087927D01*
X103034112Y-82120008D01*
X103034199Y-82120444D01*
X103083234Y-82238825D01*
X103154426Y-82345373D01*
X103572704Y-82763651D01*
X103606189Y-82824974D01*
X103602954Y-82889649D01*
X103576278Y-82971751D01*
X103540500Y-83197646D01*
X103540500Y-83426353D01*
X103576278Y-83652246D01*
X103576278Y-83652249D01*
X103646950Y-83869755D01*
X103672607Y-83920109D01*
X103750783Y-84073538D01*
X103883525Y-84256242D01*
X103907005Y-84322046D01*
X103891180Y-84390100D01*
X103841074Y-84438795D01*
X103826541Y-84445308D01*
X103798670Y-84455703D01*
X103798664Y-84455706D01*
X103683455Y-84541952D01*
X103683452Y-84541955D01*
X103597206Y-84657164D01*
X103597202Y-84657171D01*
X103546908Y-84792017D01*
X103542865Y-84829628D01*
X103540501Y-84851623D01*
X103540500Y-84851635D01*
X103540500Y-86852370D01*
X103540501Y-86852376D01*
X103546908Y-86911983D01*
X103597202Y-87046828D01*
X103597206Y-87046835D01*
X103683452Y-87162044D01*
X103683455Y-87162047D01*
X103798664Y-87248293D01*
X103798671Y-87248297D01*
X103933517Y-87298591D01*
X103941062Y-87300374D01*
X103940523Y-87302651D01*
X103994287Y-87324908D01*
X104034147Y-87382293D01*
X104040500Y-87421475D01*
X104040500Y-89765241D01*
X104040500Y-89765243D01*
X104040499Y-89765243D01*
X104078947Y-89958529D01*
X104078950Y-89958539D01*
X104154364Y-90140607D01*
X104154371Y-90140620D01*
X104263859Y-90304480D01*
X104263860Y-90304481D01*
X104263861Y-90304482D01*
X104403218Y-90443839D01*
X104403219Y-90443839D01*
X104410286Y-90450906D01*
X104410285Y-90450906D01*
X104410289Y-90450909D01*
X106361359Y-92401981D01*
X106394844Y-92463304D01*
X106389860Y-92532996D01*
X106347988Y-92588929D01*
X106286279Y-92613020D01*
X106252203Y-92616500D01*
X106252200Y-92616501D01*
X106085668Y-92671685D01*
X106085663Y-92671687D01*
X105936342Y-92763789D01*
X105812289Y-92887842D01*
X105720187Y-93037163D01*
X105720185Y-93037168D01*
X105713886Y-93056178D01*
X105665001Y-93203703D01*
X105665001Y-93203704D01*
X105665000Y-93203704D01*
X105654500Y-93306483D01*
X105654500Y-95506501D01*
X105654501Y-95506518D01*
X105665000Y-95609296D01*
X105665001Y-95609299D01*
X105674582Y-95638211D01*
X105720186Y-95775834D01*
X105812288Y-95925156D01*
X105936344Y-96049212D01*
X106085666Y-96141314D01*
X106252203Y-96196499D01*
X106343103Y-96205785D01*
X106407794Y-96232181D01*
X106447945Y-96289361D01*
X106454500Y-96329143D01*
X106454500Y-96695217D01*
X106434815Y-96762256D01*
X106418181Y-96782898D01*
X106270363Y-96930715D01*
X106270360Y-96930719D01*
X106160872Y-97094579D01*
X106160867Y-97094589D01*
X106085449Y-97276663D01*
X106085447Y-97276671D01*
X106047000Y-97469955D01*
X106047000Y-97667044D01*
X106085447Y-97860328D01*
X106085449Y-97860336D01*
X106160867Y-98042410D01*
X106160872Y-98042420D01*
X106270360Y-98206280D01*
X106270363Y-98206284D01*
X106351898Y-98287819D01*
X106385383Y-98349142D01*
X106380399Y-98418834D01*
X106338527Y-98474767D01*
X106273063Y-98499184D01*
X106264217Y-98499500D01*
X88003751Y-98499500D01*
X87996264Y-98499274D01*
X87706205Y-98481728D01*
X87691340Y-98479923D01*
X87409201Y-98428219D01*
X87394663Y-98424635D01*
X87120832Y-98339306D01*
X87106831Y-98333997D01*
X86845263Y-98216275D01*
X86832004Y-98209316D01*
X86826990Y-98206285D01*
X86586537Y-98060926D01*
X86574217Y-98052422D01*
X86561450Y-98042420D01*
X86348426Y-97875526D01*
X86337218Y-97865596D01*
X86134403Y-97662781D01*
X86124473Y-97651573D01*
X86038575Y-97541932D01*
X85947573Y-97425776D01*
X85939075Y-97413465D01*
X85790680Y-97167989D01*
X85783727Y-97154743D01*
X85666000Y-96893163D01*
X85660693Y-96879167D01*
X85635375Y-96797920D01*
X85575363Y-96605335D01*
X85571780Y-96590798D01*
X85540946Y-96422541D01*
X85520075Y-96308657D01*
X85518271Y-96293794D01*
X85513586Y-96216348D01*
X85500726Y-96003736D01*
X85500500Y-95996249D01*
X85500500Y-95878711D01*
X86149500Y-95878711D01*
X86149500Y-96121288D01*
X86181161Y-96361785D01*
X86243947Y-96596104D01*
X86312770Y-96762256D01*
X86336776Y-96820212D01*
X86458064Y-97030289D01*
X86458066Y-97030292D01*
X86458067Y-97030293D01*
X86605733Y-97222736D01*
X86605739Y-97222743D01*
X86777256Y-97394260D01*
X86777263Y-97394266D01*
X86818336Y-97425782D01*
X86969711Y-97541936D01*
X87179788Y-97663224D01*
X87403900Y-97756054D01*
X87638211Y-97818838D01*
X87818586Y-97842584D01*
X87878711Y-97850500D01*
X87878712Y-97850500D01*
X88121289Y-97850500D01*
X88169388Y-97844167D01*
X88361789Y-97818838D01*
X88596100Y-97756054D01*
X88820212Y-97663224D01*
X89030289Y-97541936D01*
X89222738Y-97394265D01*
X89394265Y-97222738D01*
X89541936Y-97030289D01*
X89663224Y-96820212D01*
X89756054Y-96596100D01*
X89818838Y-96361789D01*
X89850500Y-96121288D01*
X89850500Y-95878712D01*
X89818838Y-95638211D01*
X89756054Y-95403900D01*
X89663224Y-95179788D01*
X89541936Y-94969711D01*
X89394265Y-94777262D01*
X89394260Y-94777256D01*
X89222743Y-94605739D01*
X89222736Y-94605733D01*
X89030293Y-94458067D01*
X89030292Y-94458066D01*
X89030289Y-94458064D01*
X88858661Y-94358974D01*
X88820214Y-94336777D01*
X88820205Y-94336773D01*
X88596104Y-94243947D01*
X88361785Y-94181161D01*
X88121289Y-94149500D01*
X88121288Y-94149500D01*
X87878712Y-94149500D01*
X87878711Y-94149500D01*
X87638214Y-94181161D01*
X87403895Y-94243947D01*
X87179794Y-94336773D01*
X87179785Y-94336777D01*
X86969706Y-94458067D01*
X86777263Y-94605733D01*
X86777256Y-94605739D01*
X86605739Y-94777256D01*
X86605733Y-94777263D01*
X86458067Y-94969706D01*
X86336777Y-95179785D01*
X86336773Y-95179794D01*
X86243947Y-95403895D01*
X86181161Y-95638214D01*
X86149500Y-95878711D01*
X85500500Y-95878711D01*
X85500500Y-70712543D01*
X86269499Y-70712543D01*
X86307947Y-70905829D01*
X86307950Y-70905839D01*
X86383364Y-71087907D01*
X86383371Y-71087920D01*
X86492860Y-71251781D01*
X86492863Y-71251785D01*
X86632214Y-71391136D01*
X86632218Y-71391139D01*
X86796079Y-71500628D01*
X86796092Y-71500635D01*
X86975509Y-71574951D01*
X86978165Y-71576051D01*
X86978169Y-71576051D01*
X86978170Y-71576052D01*
X87171456Y-71614500D01*
X87171459Y-71614500D01*
X88168543Y-71614500D01*
X88298582Y-71588632D01*
X88361835Y-71576051D01*
X88543914Y-71500632D01*
X88707782Y-71391139D01*
X88847139Y-71251782D01*
X88956632Y-71087914D01*
X89032051Y-70905835D01*
X89070500Y-70712543D01*
X90299499Y-70712543D01*
X90337947Y-70905829D01*
X90337950Y-70905839D01*
X90413364Y-71087907D01*
X90413371Y-71087920D01*
X90522860Y-71251781D01*
X90522863Y-71251785D01*
X90662214Y-71391136D01*
X90662218Y-71391139D01*
X90826079Y-71500628D01*
X90826092Y-71500635D01*
X91005509Y-71574951D01*
X91008165Y-71576051D01*
X91008169Y-71576051D01*
X91008170Y-71576052D01*
X91201456Y-71614500D01*
X91201459Y-71614500D01*
X92498543Y-71614500D01*
X92628582Y-71588632D01*
X92691835Y-71576051D01*
X92873914Y-71500632D01*
X93037782Y-71391139D01*
X93177139Y-71251782D01*
X93286632Y-71087914D01*
X93362051Y-70905835D01*
X93400500Y-70712541D01*
X93400500Y-70515459D01*
X93400500Y-70515456D01*
X93362052Y-70322170D01*
X93362051Y-70322169D01*
X93362051Y-70322165D01*
X93351332Y-70296286D01*
X93286635Y-70140092D01*
X93286628Y-70140079D01*
X93177139Y-69976218D01*
X93177136Y-69976214D01*
X93037785Y-69836863D01*
X93037781Y-69836860D01*
X92873920Y-69727371D01*
X92873907Y-69727364D01*
X92691839Y-69651950D01*
X92691829Y-69651947D01*
X92498543Y-69613500D01*
X92498541Y-69613500D01*
X91981333Y-69613500D01*
X91914294Y-69593815D01*
X91868539Y-69541011D01*
X91858595Y-69471853D01*
X91873947Y-69427499D01*
X91886278Y-69406140D01*
X91886277Y-69406140D01*
X91886281Y-69406135D01*
X91925500Y-69259766D01*
X91925500Y-69108234D01*
X91886281Y-68961865D01*
X91810515Y-68830635D01*
X91703365Y-68723485D01*
X91628227Y-68680104D01*
X91572136Y-68647719D01*
X91498950Y-68628109D01*
X91425766Y-68608500D01*
X91274234Y-68608500D01*
X91127863Y-68647719D01*
X90996635Y-68723485D01*
X90996632Y-68723487D01*
X90889487Y-68830632D01*
X90889485Y-68830635D01*
X90813719Y-68961863D01*
X90774500Y-69108234D01*
X90774500Y-69259766D01*
X90794109Y-69332950D01*
X90813719Y-69406136D01*
X90837017Y-69446489D01*
X90889485Y-69537365D01*
X90889486Y-69537366D01*
X90893549Y-69544403D01*
X90891220Y-69545747D01*
X90911645Y-69598584D01*
X90897603Y-69667029D01*
X90848787Y-69717016D01*
X90835528Y-69723456D01*
X90826094Y-69727363D01*
X90826079Y-69727371D01*
X90662218Y-69836860D01*
X90662214Y-69836863D01*
X90522863Y-69976214D01*
X90522860Y-69976218D01*
X90413371Y-70140079D01*
X90413364Y-70140092D01*
X90337950Y-70322160D01*
X90337947Y-70322170D01*
X90299500Y-70515456D01*
X90299500Y-70515459D01*
X90299500Y-70712541D01*
X90299500Y-70712543D01*
X90299499Y-70712543D01*
X89070500Y-70712543D01*
X89070500Y-70712541D01*
X89070500Y-70515459D01*
X89070500Y-70515456D01*
X89032052Y-70322170D01*
X89032051Y-70322169D01*
X89032051Y-70322165D01*
X89021332Y-70296286D01*
X88956635Y-70140092D01*
X88956628Y-70140079D01*
X88847139Y-69976218D01*
X88847136Y-69976214D01*
X88707785Y-69836863D01*
X88707781Y-69836860D01*
X88543920Y-69727371D01*
X88543907Y-69727364D01*
X88361839Y-69651950D01*
X88361829Y-69651947D01*
X88168543Y-69613500D01*
X88168541Y-69613500D01*
X87171459Y-69613500D01*
X87171457Y-69613500D01*
X86978170Y-69651947D01*
X86978160Y-69651950D01*
X86796092Y-69727364D01*
X86796079Y-69727371D01*
X86632218Y-69836860D01*
X86632214Y-69836863D01*
X86492863Y-69976214D01*
X86492860Y-69976218D01*
X86383371Y-70140079D01*
X86383364Y-70140092D01*
X86307950Y-70322160D01*
X86307947Y-70322170D01*
X86269500Y-70515456D01*
X86269500Y-70515459D01*
X86269500Y-70712541D01*
X86269500Y-70712543D01*
X86269499Y-70712543D01*
X85500500Y-70712543D01*
X85500500Y-62072543D01*
X86269499Y-62072543D01*
X86307947Y-62265829D01*
X86307950Y-62265839D01*
X86383364Y-62447907D01*
X86383371Y-62447920D01*
X86492860Y-62611781D01*
X86492863Y-62611785D01*
X86632214Y-62751136D01*
X86632218Y-62751139D01*
X86796079Y-62860628D01*
X86796092Y-62860635D01*
X86978160Y-62936049D01*
X86978165Y-62936051D01*
X86978169Y-62936051D01*
X86978170Y-62936052D01*
X87171456Y-62974500D01*
X87171459Y-62974500D01*
X88168543Y-62974500D01*
X88324462Y-62943485D01*
X88361835Y-62936051D01*
X88543914Y-62860632D01*
X88707782Y-62751139D01*
X88847139Y-62611782D01*
X88956632Y-62447914D01*
X89032051Y-62265835D01*
X89070500Y-62072543D01*
X90299499Y-62072543D01*
X90337947Y-62265829D01*
X90337950Y-62265839D01*
X90413364Y-62447907D01*
X90413371Y-62447920D01*
X90522860Y-62611781D01*
X90522863Y-62611785D01*
X90662214Y-62751136D01*
X90662218Y-62751139D01*
X90826079Y-62860628D01*
X90826083Y-62860630D01*
X90826086Y-62860632D01*
X90835523Y-62864541D01*
X90889927Y-62908378D01*
X90911995Y-62974672D01*
X90894719Y-63042372D01*
X90891565Y-63047032D01*
X90813719Y-63181863D01*
X90788009Y-63277816D01*
X90774500Y-63328234D01*
X90774500Y-63479766D01*
X90794109Y-63552950D01*
X90813719Y-63626136D01*
X90832867Y-63659300D01*
X90889485Y-63757365D01*
X90996635Y-63864515D01*
X91127865Y-63940281D01*
X91274234Y-63979500D01*
X91274236Y-63979500D01*
X91425764Y-63979500D01*
X91425766Y-63979500D01*
X91572135Y-63940281D01*
X91703365Y-63864515D01*
X91810515Y-63757365D01*
X91886281Y-63626135D01*
X91925500Y-63479766D01*
X91925500Y-63328234D01*
X91886281Y-63181865D01*
X91886278Y-63181859D01*
X91873947Y-63160501D01*
X91857473Y-63092602D01*
X91880325Y-63026574D01*
X91935245Y-62983383D01*
X91981333Y-62974500D01*
X92498543Y-62974500D01*
X92654462Y-62943485D01*
X92691835Y-62936051D01*
X92873914Y-62860632D01*
X93037782Y-62751139D01*
X93177139Y-62611782D01*
X93286632Y-62447914D01*
X93362051Y-62265835D01*
X93400500Y-62072541D01*
X93400500Y-61875459D01*
X93400500Y-61875456D01*
X93362052Y-61682170D01*
X93362051Y-61682169D01*
X93362051Y-61682165D01*
X93347969Y-61648168D01*
X93286635Y-61500092D01*
X93286628Y-61500079D01*
X93177139Y-61336218D01*
X93177136Y-61336214D01*
X93037785Y-61196863D01*
X93037781Y-61196860D01*
X92873920Y-61087371D01*
X92873907Y-61087364D01*
X92691839Y-61011950D01*
X92691829Y-61011947D01*
X92498543Y-60973500D01*
X92498541Y-60973500D01*
X91201459Y-60973500D01*
X91201457Y-60973500D01*
X91008170Y-61011947D01*
X91008160Y-61011950D01*
X90826092Y-61087364D01*
X90826079Y-61087371D01*
X90662218Y-61196860D01*
X90662214Y-61196863D01*
X90522863Y-61336214D01*
X90522860Y-61336218D01*
X90413371Y-61500079D01*
X90413364Y-61500092D01*
X90337950Y-61682160D01*
X90337947Y-61682170D01*
X90299500Y-61875456D01*
X90299500Y-61875459D01*
X90299500Y-62072541D01*
X90299500Y-62072543D01*
X90299499Y-62072543D01*
X89070500Y-62072543D01*
X89070500Y-62072541D01*
X89070500Y-61875459D01*
X89070500Y-61875456D01*
X89032052Y-61682170D01*
X89032051Y-61682169D01*
X89032051Y-61682165D01*
X89017969Y-61648168D01*
X88956635Y-61500092D01*
X88956628Y-61500079D01*
X88847139Y-61336218D01*
X88847136Y-61336214D01*
X88707785Y-61196863D01*
X88707781Y-61196860D01*
X88543920Y-61087371D01*
X88543907Y-61087364D01*
X88361839Y-61011950D01*
X88361829Y-61011947D01*
X88168543Y-60973500D01*
X88168541Y-60973500D01*
X87171459Y-60973500D01*
X87171457Y-60973500D01*
X86978170Y-61011947D01*
X86978160Y-61011950D01*
X86796092Y-61087364D01*
X86796079Y-61087371D01*
X86632218Y-61196860D01*
X86632214Y-61196863D01*
X86492863Y-61336214D01*
X86492860Y-61336218D01*
X86383371Y-61500079D01*
X86383364Y-61500092D01*
X86307950Y-61682160D01*
X86307947Y-61682170D01*
X86269500Y-61875456D01*
X86269500Y-61875459D01*
X86269500Y-62072541D01*
X86269500Y-62072543D01*
X86269499Y-62072543D01*
X85500500Y-62072543D01*
X85500500Y-56592135D01*
X130399500Y-56592135D01*
X130399500Y-58387870D01*
X130399501Y-58387876D01*
X130405908Y-58447483D01*
X130456202Y-58582328D01*
X130456206Y-58582335D01*
X130542452Y-58697544D01*
X130542455Y-58697547D01*
X130657664Y-58783793D01*
X130657671Y-58783797D01*
X130789082Y-58832810D01*
X130845016Y-58874681D01*
X130869433Y-58940145D01*
X130854582Y-59008418D01*
X130833431Y-59036673D01*
X130719889Y-59150215D01*
X130594951Y-59322179D01*
X130498444Y-59511585D01*
X130432753Y-59713760D01*
X130399500Y-59923713D01*
X130399500Y-60136286D01*
X130432753Y-60346239D01*
X130498444Y-60548414D01*
X130594951Y-60737820D01*
X130719890Y-60909786D01*
X130870213Y-61060109D01*
X131042182Y-61185050D01*
X131050946Y-61189516D01*
X131101742Y-61237491D01*
X131118536Y-61305312D01*
X131095998Y-61371447D01*
X131050946Y-61410484D01*
X131042182Y-61414949D01*
X130870213Y-61539890D01*
X130870209Y-61539894D01*
X130719896Y-61690208D01*
X130719890Y-61690213D01*
X130594951Y-61862179D01*
X130498444Y-62051585D01*
X130432753Y-62253760D01*
X130399500Y-62463713D01*
X130399500Y-62676286D01*
X130429316Y-62864540D01*
X130432754Y-62886243D01*
X130486168Y-63050635D01*
X130498444Y-63088414D01*
X130594951Y-63277820D01*
X130719890Y-63449786D01*
X130870213Y-63600109D01*
X131042182Y-63725050D01*
X131050946Y-63729516D01*
X131101742Y-63777491D01*
X131118536Y-63845312D01*
X131095998Y-63911447D01*
X131050946Y-63950484D01*
X131042182Y-63954949D01*
X130870213Y-64079890D01*
X130719890Y-64230213D01*
X130594951Y-64402179D01*
X130498444Y-64591585D01*
X130432753Y-64793760D01*
X130403111Y-64980914D01*
X130399500Y-65003713D01*
X130399500Y-65216287D01*
X130432754Y-65426243D01*
X130466122Y-65528940D01*
X130498444Y-65628414D01*
X130594951Y-65817820D01*
X130719890Y-65989786D01*
X130870213Y-66140109D01*
X131042182Y-66265050D01*
X131050946Y-66269516D01*
X131101742Y-66317491D01*
X131118536Y-66385312D01*
X131095998Y-66451447D01*
X131050946Y-66490484D01*
X131042182Y-66494949D01*
X130870213Y-66619890D01*
X130719890Y-66770213D01*
X130594951Y-66942179D01*
X130498444Y-67131585D01*
X130498443Y-67131587D01*
X130498443Y-67131588D01*
X130497366Y-67134902D01*
X130432753Y-67333760D01*
X130399500Y-67543713D01*
X130399500Y-67756286D01*
X130432169Y-67962554D01*
X130432754Y-67966243D01*
X130484378Y-68125126D01*
X130498444Y-68168414D01*
X130594951Y-68357820D01*
X130719890Y-68529786D01*
X130870213Y-68680109D01*
X131042182Y-68805050D01*
X131050946Y-68809516D01*
X131101742Y-68857491D01*
X131118536Y-68925312D01*
X131095998Y-68991447D01*
X131050946Y-69030484D01*
X131042182Y-69034949D01*
X130870213Y-69159890D01*
X130719890Y-69310213D01*
X130594951Y-69482179D01*
X130498444Y-69671585D01*
X130432753Y-69873760D01*
X130415493Y-69982735D01*
X130399500Y-70083713D01*
X130399500Y-70296287D01*
X130432754Y-70506243D01*
X130435748Y-70515459D01*
X130498444Y-70708414D01*
X130594951Y-70897820D01*
X130719890Y-71069786D01*
X130870213Y-71220109D01*
X131042182Y-71345050D01*
X131050946Y-71349516D01*
X131101742Y-71397491D01*
X131118536Y-71465312D01*
X131095998Y-71531447D01*
X131050946Y-71570484D01*
X131042182Y-71574949D01*
X130870213Y-71699890D01*
X130719890Y-71850213D01*
X130594951Y-72022179D01*
X130498444Y-72211585D01*
X130432753Y-72413760D01*
X130399500Y-72623713D01*
X130399500Y-72836286D01*
X130431360Y-73037447D01*
X130432754Y-73046243D01*
X130489978Y-73222361D01*
X130498444Y-73248414D01*
X130594951Y-73437820D01*
X130719890Y-73609786D01*
X130870213Y-73760109D01*
X131042182Y-73885050D01*
X131050946Y-73889516D01*
X131101742Y-73937491D01*
X131118536Y-74005312D01*
X131095998Y-74071447D01*
X131050946Y-74110484D01*
X131042182Y-74114949D01*
X130870213Y-74239890D01*
X130719890Y-74390213D01*
X130594951Y-74562179D01*
X130498444Y-74751585D01*
X130432753Y-74953760D01*
X130419490Y-75037501D01*
X130399500Y-75163713D01*
X130399500Y-75376287D01*
X130409534Y-75439644D01*
X130432753Y-75586239D01*
X130498444Y-75788414D01*
X130594951Y-75977820D01*
X130719890Y-76149786D01*
X130870213Y-76300109D01*
X131042182Y-76425050D01*
X131050946Y-76429516D01*
X131101742Y-76477491D01*
X131118536Y-76545312D01*
X131095998Y-76611447D01*
X131050946Y-76650484D01*
X131042182Y-76654949D01*
X130870213Y-76779890D01*
X130719890Y-76930213D01*
X130594951Y-77102179D01*
X130498444Y-77291585D01*
X130432753Y-77493760D01*
X130399500Y-77703713D01*
X130399500Y-77916287D01*
X130401984Y-77931969D01*
X130423594Y-78068414D01*
X130432754Y-78126243D01*
X130483549Y-78282574D01*
X130498444Y-78328414D01*
X130594951Y-78517820D01*
X130719890Y-78689786D01*
X130870213Y-78840109D01*
X131042182Y-78965050D01*
X131050946Y-78969516D01*
X131101742Y-79017491D01*
X131118536Y-79085312D01*
X131095998Y-79151447D01*
X131050946Y-79190484D01*
X131042182Y-79194949D01*
X130870213Y-79319890D01*
X130719890Y-79470213D01*
X130594951Y-79642179D01*
X130498444Y-79831585D01*
X130432753Y-80033760D01*
X130399500Y-80243713D01*
X130399500Y-80456286D01*
X130429864Y-80648000D01*
X130432754Y-80666243D01*
X130462509Y-80757820D01*
X130498444Y-80868414D01*
X130594951Y-81057820D01*
X130719890Y-81229786D01*
X130870213Y-81380109D01*
X131042182Y-81505050D01*
X131050946Y-81509516D01*
X131101742Y-81557491D01*
X131118536Y-81625312D01*
X131095998Y-81691447D01*
X131050946Y-81730484D01*
X131042182Y-81734949D01*
X130870213Y-81859890D01*
X130719890Y-82010213D01*
X130594951Y-82182179D01*
X130498444Y-82371585D01*
X130432753Y-82573760D01*
X130399500Y-82783713D01*
X130399500Y-82996286D01*
X130431392Y-83197647D01*
X130432754Y-83206243D01*
X130497124Y-83404354D01*
X130498444Y-83408414D01*
X130594951Y-83597820D01*
X130719890Y-83769786D01*
X130870213Y-83920109D01*
X131042182Y-84045050D01*
X131050946Y-84049516D01*
X131101742Y-84097491D01*
X131118536Y-84165312D01*
X131095998Y-84231447D01*
X131050946Y-84270484D01*
X131042182Y-84274949D01*
X130870213Y-84399890D01*
X130719890Y-84550213D01*
X130594951Y-84722179D01*
X130498444Y-84911585D01*
X130432753Y-85113760D01*
X130399500Y-85323713D01*
X130399500Y-85536286D01*
X130425432Y-85700018D01*
X130432754Y-85746243D01*
X130451130Y-85802799D01*
X130498444Y-85948414D01*
X130594951Y-86137820D01*
X130719890Y-86309786D01*
X130870213Y-86460109D01*
X131042182Y-86585050D01*
X131050946Y-86589516D01*
X131101742Y-86637491D01*
X131118536Y-86705312D01*
X131095998Y-86771447D01*
X131050946Y-86810484D01*
X131042182Y-86814949D01*
X130870213Y-86939890D01*
X130719890Y-87090213D01*
X130594951Y-87262179D01*
X130498444Y-87451585D01*
X130432753Y-87653760D01*
X130399500Y-87863713D01*
X130399500Y-88076286D01*
X130432293Y-88283336D01*
X130432754Y-88286243D01*
X130493328Y-88472671D01*
X130498444Y-88488414D01*
X130594951Y-88677820D01*
X130719890Y-88849786D01*
X130870213Y-89000109D01*
X131042182Y-89125050D01*
X131050946Y-89129516D01*
X131101742Y-89177491D01*
X131118536Y-89245312D01*
X131095998Y-89311447D01*
X131050946Y-89350484D01*
X131042182Y-89354949D01*
X130870213Y-89479890D01*
X130719890Y-89630213D01*
X130594951Y-89802179D01*
X130498444Y-89991585D01*
X130432753Y-90193760D01*
X130399500Y-90403713D01*
X130399500Y-90616286D01*
X130432753Y-90826239D01*
X130498444Y-91028414D01*
X130594951Y-91217820D01*
X130719890Y-91389786D01*
X130870213Y-91540109D01*
X131042179Y-91665048D01*
X131042181Y-91665049D01*
X131042184Y-91665051D01*
X131231588Y-91761557D01*
X131433757Y-91827246D01*
X131643713Y-91860500D01*
X131643714Y-91860500D01*
X131856286Y-91860500D01*
X131856287Y-91860500D01*
X132066243Y-91827246D01*
X132268412Y-91761557D01*
X132457816Y-91665051D01*
X132479789Y-91649086D01*
X132629786Y-91540109D01*
X132629788Y-91540106D01*
X132629792Y-91540104D01*
X132780104Y-91389792D01*
X132780106Y-91389788D01*
X132780109Y-91389786D01*
X132905048Y-91217820D01*
X132905047Y-91217820D01*
X132905051Y-91217816D01*
X133001557Y-91028412D01*
X133067246Y-90826243D01*
X133100500Y-90616287D01*
X133100500Y-90403713D01*
X133067246Y-90193757D01*
X133001557Y-89991588D01*
X132905051Y-89802184D01*
X132905049Y-89802181D01*
X132905048Y-89802179D01*
X132780109Y-89630213D01*
X132629786Y-89479890D01*
X132457820Y-89354951D01*
X132457115Y-89354591D01*
X132449054Y-89350485D01*
X132398259Y-89302512D01*
X132381463Y-89234692D01*
X132403999Y-89168556D01*
X132449054Y-89129515D01*
X132457816Y-89125051D01*
X132552395Y-89056336D01*
X132629786Y-89000109D01*
X132629788Y-89000106D01*
X132629792Y-89000104D01*
X132780104Y-88849792D01*
X132780106Y-88849788D01*
X132780109Y-88849786D01*
X132905048Y-88677820D01*
X132905047Y-88677820D01*
X132905051Y-88677816D01*
X133001557Y-88488412D01*
X133067246Y-88286243D01*
X133100500Y-88076287D01*
X133100500Y-87863713D01*
X133067246Y-87653757D01*
X133001557Y-87451588D01*
X132905051Y-87262184D01*
X132905049Y-87262181D01*
X132905048Y-87262179D01*
X132780109Y-87090213D01*
X132629786Y-86939890D01*
X132457820Y-86814951D01*
X132457115Y-86814591D01*
X132449054Y-86810485D01*
X132398259Y-86762512D01*
X132381463Y-86694692D01*
X132403999Y-86628556D01*
X132449054Y-86589515D01*
X132457816Y-86585051D01*
X132479789Y-86569086D01*
X132629786Y-86460109D01*
X132629788Y-86460106D01*
X132629792Y-86460104D01*
X132780104Y-86309792D01*
X132780106Y-86309788D01*
X132780109Y-86309786D01*
X132905048Y-86137820D01*
X132905047Y-86137820D01*
X132905051Y-86137816D01*
X133001557Y-85948412D01*
X133067246Y-85746243D01*
X133100500Y-85536287D01*
X133100500Y-85323713D01*
X133067246Y-85113757D01*
X133001557Y-84911588D01*
X132905051Y-84722184D01*
X132905049Y-84722181D01*
X132905048Y-84722179D01*
X132780109Y-84550213D01*
X132629786Y-84399890D01*
X132457820Y-84274951D01*
X132457115Y-84274591D01*
X132449054Y-84270485D01*
X132398259Y-84222512D01*
X132381463Y-84154692D01*
X132403999Y-84088556D01*
X132449054Y-84049515D01*
X132457816Y-84045051D01*
X132545505Y-83981342D01*
X132629786Y-83920109D01*
X132629788Y-83920106D01*
X132629792Y-83920104D01*
X132780104Y-83769792D01*
X132780106Y-83769788D01*
X132780109Y-83769786D01*
X132905048Y-83597820D01*
X132905047Y-83597820D01*
X132905051Y-83597816D01*
X133001557Y-83408412D01*
X133067246Y-83206243D01*
X133100500Y-82996287D01*
X133100500Y-82783713D01*
X133067246Y-82573757D01*
X133001557Y-82371588D01*
X132905051Y-82182184D01*
X132905049Y-82182181D01*
X132905048Y-82182179D01*
X132780109Y-82010213D01*
X132629786Y-81859890D01*
X132457820Y-81734951D01*
X132457115Y-81734591D01*
X132449054Y-81730485D01*
X132398259Y-81682512D01*
X132381463Y-81614692D01*
X132403999Y-81548556D01*
X132449054Y-81509515D01*
X132457816Y-81505051D01*
X132479789Y-81489086D01*
X132629786Y-81380109D01*
X132629788Y-81380106D01*
X132629792Y-81380104D01*
X132780104Y-81229792D01*
X132780106Y-81229788D01*
X132780109Y-81229786D01*
X132889086Y-81079789D01*
X132905051Y-81057816D01*
X133001557Y-80868412D01*
X133067246Y-80666243D01*
X133100500Y-80456287D01*
X133100500Y-80243713D01*
X133067246Y-80033757D01*
X133001557Y-79831588D01*
X132905051Y-79642184D01*
X132905049Y-79642181D01*
X132905048Y-79642179D01*
X132780109Y-79470213D01*
X132629786Y-79319890D01*
X132457820Y-79194951D01*
X132457115Y-79194591D01*
X132449054Y-79190485D01*
X132398259Y-79142512D01*
X132381463Y-79074692D01*
X132403999Y-79008556D01*
X132449054Y-78969515D01*
X132457816Y-78965051D01*
X132546914Y-78900318D01*
X132629786Y-78840109D01*
X132629788Y-78840106D01*
X132629792Y-78840104D01*
X132780104Y-78689792D01*
X132780106Y-78689788D01*
X132780109Y-78689786D01*
X132905048Y-78517820D01*
X132905047Y-78517820D01*
X132905051Y-78517816D01*
X133001557Y-78328412D01*
X133067246Y-78126243D01*
X133100500Y-77916287D01*
X133100500Y-77703713D01*
X133067246Y-77493757D01*
X133001557Y-77291588D01*
X132905051Y-77102184D01*
X132905049Y-77102181D01*
X132905048Y-77102179D01*
X132780109Y-76930213D01*
X132629786Y-76779890D01*
X132457820Y-76654951D01*
X132457115Y-76654591D01*
X132449054Y-76650485D01*
X132398259Y-76602512D01*
X132381463Y-76534692D01*
X132403999Y-76468556D01*
X132449054Y-76429515D01*
X132457816Y-76425051D01*
X132499248Y-76394949D01*
X132629786Y-76300109D01*
X132629788Y-76300106D01*
X132629792Y-76300104D01*
X132780104Y-76149792D01*
X132780106Y-76149788D01*
X132780109Y-76149786D01*
X132899644Y-75985258D01*
X132905051Y-75977816D01*
X133001557Y-75788412D01*
X133067246Y-75586243D01*
X133100500Y-75376287D01*
X133100500Y-75163713D01*
X133067246Y-74953757D01*
X133001557Y-74751588D01*
X132905051Y-74562184D01*
X132905049Y-74562181D01*
X132905048Y-74562179D01*
X132780109Y-74390213D01*
X132629786Y-74239890D01*
X132457820Y-74114951D01*
X132457115Y-74114591D01*
X132449054Y-74110485D01*
X132398259Y-74062512D01*
X132381463Y-73994692D01*
X132403999Y-73928556D01*
X132449054Y-73889515D01*
X132457816Y-73885051D01*
X132479789Y-73869086D01*
X132629786Y-73760109D01*
X132629788Y-73760106D01*
X132629792Y-73760104D01*
X132780104Y-73609792D01*
X132780106Y-73609788D01*
X132780109Y-73609786D01*
X132905048Y-73437820D01*
X132905047Y-73437820D01*
X132905051Y-73437816D01*
X133001557Y-73248412D01*
X133067246Y-73046243D01*
X133100500Y-72836287D01*
X133100500Y-72623713D01*
X133067246Y-72413757D01*
X133001557Y-72211588D01*
X132905051Y-72022184D01*
X132905049Y-72022181D01*
X132905048Y-72022179D01*
X132780109Y-71850213D01*
X132629786Y-71699890D01*
X132457820Y-71574951D01*
X132457115Y-71574591D01*
X132449054Y-71570485D01*
X132398259Y-71522512D01*
X132381463Y-71454692D01*
X132403999Y-71388556D01*
X132449054Y-71349515D01*
X132457816Y-71345051D01*
X132586191Y-71251782D01*
X132629786Y-71220109D01*
X132629788Y-71220106D01*
X132629792Y-71220104D01*
X132780104Y-71069792D01*
X132780106Y-71069788D01*
X132780109Y-71069786D01*
X132905048Y-70897820D01*
X132905047Y-70897820D01*
X132905051Y-70897816D01*
X133001557Y-70708412D01*
X133067246Y-70506243D01*
X133100500Y-70296287D01*
X133100500Y-70083713D01*
X133067246Y-69873757D01*
X133001557Y-69671588D01*
X132905051Y-69482184D01*
X132905049Y-69482181D01*
X132905048Y-69482179D01*
X132780109Y-69310213D01*
X132629786Y-69159890D01*
X132457820Y-69034951D01*
X132457115Y-69034591D01*
X132449054Y-69030485D01*
X132398259Y-68982512D01*
X132381463Y-68914692D01*
X132403999Y-68848556D01*
X132449054Y-68809515D01*
X132457816Y-68805051D01*
X132479908Y-68789000D01*
X132629786Y-68680109D01*
X132629788Y-68680106D01*
X132629792Y-68680104D01*
X132780104Y-68529792D01*
X132780106Y-68529788D01*
X132780109Y-68529786D01*
X132905048Y-68357820D01*
X132905047Y-68357820D01*
X132905051Y-68357816D01*
X133001557Y-68168412D01*
X133067246Y-67966243D01*
X133100500Y-67756287D01*
X133100500Y-67543713D01*
X133067246Y-67333757D01*
X133001557Y-67131588D01*
X132905051Y-66942184D01*
X132905049Y-66942181D01*
X132905048Y-66942179D01*
X132780109Y-66770213D01*
X132629786Y-66619890D01*
X132457820Y-66494951D01*
X132457115Y-66494591D01*
X132449054Y-66490485D01*
X132398259Y-66442512D01*
X132381463Y-66374692D01*
X132403999Y-66308556D01*
X132449054Y-66269515D01*
X132457816Y-66265051D01*
X132533900Y-66209773D01*
X132629786Y-66140109D01*
X132629788Y-66140106D01*
X132629792Y-66140104D01*
X132780104Y-65989792D01*
X132780106Y-65989788D01*
X132780109Y-65989786D01*
X132905048Y-65817820D01*
X132905047Y-65817820D01*
X132905051Y-65817816D01*
X133001557Y-65628412D01*
X133067246Y-65426243D01*
X133100500Y-65216287D01*
X133100500Y-65003713D01*
X133067246Y-64793757D01*
X133001557Y-64591588D01*
X132905051Y-64402184D01*
X132905049Y-64402181D01*
X132905048Y-64402179D01*
X132780109Y-64230213D01*
X132629786Y-64079890D01*
X132457820Y-63954951D01*
X132457115Y-63954591D01*
X132449054Y-63950485D01*
X132398259Y-63902512D01*
X132381463Y-63834692D01*
X132403999Y-63768556D01*
X132449054Y-63729515D01*
X132457816Y-63725051D01*
X132479789Y-63709086D01*
X132629786Y-63600109D01*
X132629788Y-63600106D01*
X132629792Y-63600104D01*
X132780104Y-63449792D01*
X132780106Y-63449788D01*
X132780109Y-63449786D01*
X132905048Y-63277820D01*
X132905047Y-63277820D01*
X132905051Y-63277816D01*
X133001557Y-63088412D01*
X133067246Y-62886243D01*
X133100500Y-62676287D01*
X133100500Y-62463713D01*
X133067246Y-62253757D01*
X133001557Y-62051588D01*
X132905051Y-61862184D01*
X132905049Y-61862181D01*
X132905048Y-61862179D01*
X132780109Y-61690213D01*
X132629786Y-61539890D01*
X132457820Y-61414951D01*
X132457115Y-61414591D01*
X132449054Y-61410485D01*
X132398259Y-61362512D01*
X132381463Y-61294692D01*
X132403999Y-61228556D01*
X132449054Y-61189515D01*
X132457816Y-61185051D01*
X132479789Y-61169086D01*
X132629786Y-61060109D01*
X132629788Y-61060106D01*
X132629792Y-61060104D01*
X132780104Y-60909792D01*
X132780106Y-60909788D01*
X132780109Y-60909786D01*
X132905048Y-60737820D01*
X132905047Y-60737820D01*
X132905051Y-60737816D01*
X133001557Y-60548412D01*
X133067246Y-60346243D01*
X133100500Y-60136287D01*
X133100500Y-59923713D01*
X133067246Y-59713757D01*
X133001557Y-59511588D01*
X132905051Y-59322184D01*
X132905049Y-59322181D01*
X132905048Y-59322179D01*
X132780109Y-59150213D01*
X132666569Y-59036673D01*
X132633084Y-58975350D01*
X132638068Y-58905658D01*
X132679940Y-58849725D01*
X132710915Y-58832810D01*
X132842331Y-58783796D01*
X132957546Y-58697546D01*
X133043796Y-58582331D01*
X133094091Y-58447483D01*
X133100500Y-58387873D01*
X133100499Y-56592128D01*
X133094091Y-56532517D01*
X133043796Y-56397669D01*
X133043795Y-56397668D01*
X133043793Y-56397664D01*
X132957547Y-56282455D01*
X132957544Y-56282452D01*
X132842335Y-56196206D01*
X132842328Y-56196202D01*
X132707482Y-56145908D01*
X132707483Y-56145908D01*
X132647883Y-56139501D01*
X132647881Y-56139500D01*
X132647873Y-56139500D01*
X132647864Y-56139500D01*
X130852129Y-56139500D01*
X130852123Y-56139501D01*
X130792516Y-56145908D01*
X130657671Y-56196202D01*
X130657664Y-56196206D01*
X130542455Y-56282452D01*
X130542452Y-56282455D01*
X130456206Y-56397664D01*
X130456202Y-56397671D01*
X130405908Y-56532517D01*
X130399501Y-56592116D01*
X130399501Y-56592123D01*
X130399500Y-56592135D01*
X85500500Y-56592135D01*
X85500500Y-52003750D01*
X85500726Y-51996263D01*
X85507837Y-51878711D01*
X86149500Y-51878711D01*
X86149500Y-52121288D01*
X86181161Y-52361785D01*
X86243947Y-52596104D01*
X86336773Y-52820205D01*
X86336776Y-52820212D01*
X86458064Y-53030289D01*
X86458066Y-53030292D01*
X86458067Y-53030293D01*
X86605733Y-53222736D01*
X86605739Y-53222743D01*
X86777256Y-53394260D01*
X86777262Y-53394265D01*
X86969711Y-53541936D01*
X87179788Y-53663224D01*
X87403900Y-53756054D01*
X87638211Y-53818838D01*
X87818586Y-53842584D01*
X87878711Y-53850500D01*
X87878712Y-53850500D01*
X88121289Y-53850500D01*
X88169388Y-53844167D01*
X88361789Y-53818838D01*
X88596100Y-53756054D01*
X88820212Y-53663224D01*
X89030289Y-53541936D01*
X89222738Y-53394265D01*
X89394265Y-53222738D01*
X89541936Y-53030289D01*
X89663224Y-52820212D01*
X89756054Y-52596100D01*
X89818838Y-52361789D01*
X89850500Y-52121288D01*
X89850500Y-51878712D01*
X89818838Y-51638211D01*
X89756054Y-51403900D01*
X89663224Y-51179788D01*
X89541936Y-50969711D01*
X89394265Y-50777262D01*
X89394260Y-50777256D01*
X89222743Y-50605739D01*
X89222736Y-50605733D01*
X89030293Y-50458067D01*
X89030292Y-50458066D01*
X89030289Y-50458064D01*
X88858661Y-50358974D01*
X88820214Y-50336777D01*
X88820205Y-50336773D01*
X88596104Y-50243947D01*
X88361785Y-50181161D01*
X88121289Y-50149500D01*
X88121288Y-50149500D01*
X87878712Y-50149500D01*
X87878711Y-50149500D01*
X87638214Y-50181161D01*
X87403895Y-50243947D01*
X87179794Y-50336773D01*
X87179785Y-50336777D01*
X86969706Y-50458067D01*
X86777263Y-50605733D01*
X86777256Y-50605739D01*
X86605739Y-50777256D01*
X86605733Y-50777263D01*
X86458067Y-50969706D01*
X86336777Y-51179785D01*
X86336773Y-51179794D01*
X86243947Y-51403895D01*
X86181161Y-51638214D01*
X86149500Y-51878711D01*
X85507837Y-51878711D01*
X85508535Y-51867166D01*
X85518271Y-51706205D01*
X85520076Y-51691340D01*
X85529813Y-51638211D01*
X85571780Y-51409197D01*
X85575364Y-51394663D01*
X85652096Y-51148422D01*
X85660696Y-51120822D01*
X85665998Y-51106841D01*
X85783731Y-50845249D01*
X85790676Y-50832016D01*
X85939080Y-50586526D01*
X85947567Y-50574230D01*
X86124480Y-50348417D01*
X86134395Y-50337226D01*
X86337226Y-50134395D01*
X86348417Y-50124480D01*
X86574230Y-49947567D01*
X86586526Y-49939080D01*
X86832016Y-49790676D01*
X86845249Y-49783731D01*
X87106841Y-49665998D01*
X87120822Y-49660696D01*
X87394668Y-49575362D01*
X87409197Y-49571780D01*
X87691344Y-49520075D01*
X87706201Y-49518271D01*
X87996264Y-49500726D01*
X88003751Y-49500500D01*
X88065892Y-49500500D01*
X96310000Y-49500500D01*
X96377039Y-49520185D01*
G37*
%TD.AperFunction*%
%TA.AperFunction,Conductor*%
G36*
X111748731Y-80541685D02*
G01*
X111769373Y-80558319D01*
X113974704Y-82763650D01*
X114008189Y-82824973D01*
X114004955Y-82889647D01*
X113978277Y-82971755D01*
X113942500Y-83197646D01*
X113942500Y-83426353D01*
X113978278Y-83652246D01*
X113978278Y-83652249D01*
X114048950Y-83869755D01*
X114074607Y-83920109D01*
X114152783Y-84073538D01*
X114285525Y-84256242D01*
X114309005Y-84322046D01*
X114293180Y-84390100D01*
X114243074Y-84438795D01*
X114228541Y-84445308D01*
X114200670Y-84455703D01*
X114200664Y-84455706D01*
X114085455Y-84541952D01*
X114085452Y-84541955D01*
X113999206Y-84657164D01*
X113999202Y-84657171D01*
X113948908Y-84792017D01*
X113944865Y-84829628D01*
X113942500Y-84851627D01*
X113942500Y-85637989D01*
X113942501Y-86381700D01*
X113922816Y-86448739D01*
X113870013Y-86494494D01*
X113818501Y-86505700D01*
X111866500Y-86505700D01*
X111799461Y-86486015D01*
X111753706Y-86433211D01*
X111742500Y-86381700D01*
X111742499Y-84851629D01*
X111742498Y-84851623D01*
X111742497Y-84851616D01*
X111736091Y-84792017D01*
X111727885Y-84770016D01*
X111685797Y-84657171D01*
X111685793Y-84657164D01*
X111599547Y-84541955D01*
X111599544Y-84541952D01*
X111484335Y-84455706D01*
X111484328Y-84455702D01*
X111456459Y-84445308D01*
X111400525Y-84403437D01*
X111376108Y-84337973D01*
X111390960Y-84269700D01*
X111399460Y-84256260D01*
X111532217Y-84073538D01*
X111636048Y-83869758D01*
X111668531Y-83769786D01*
X111706721Y-83652249D01*
X111706721Y-83652248D01*
X111706722Y-83652245D01*
X111742500Y-83426354D01*
X111742500Y-83197646D01*
X111706722Y-82971755D01*
X111706721Y-82971751D01*
X111706721Y-82971750D01*
X111636049Y-82754244D01*
X111591386Y-82666588D01*
X111532217Y-82550462D01*
X111397786Y-82365434D01*
X111236066Y-82203714D01*
X111151134Y-82142007D01*
X111108470Y-82086678D01*
X111102491Y-82017064D01*
X111135097Y-81955269D01*
X111151137Y-81941371D01*
X111235739Y-81879905D01*
X111397402Y-81718242D01*
X111531788Y-81533276D01*
X111635582Y-81329570D01*
X111706234Y-81112128D01*
X111720509Y-81022000D01*
X110732748Y-81022000D01*
X110754518Y-80984292D01*
X110792000Y-80844409D01*
X110792000Y-80699591D01*
X110754518Y-80559708D01*
X110732748Y-80522000D01*
X111681692Y-80522000D01*
X111748731Y-80541685D01*
G37*
%TD.AperFunction*%
%TA.AperFunction,Conductor*%
G36*
X105251458Y-66125264D02*
G01*
X105287110Y-66185353D01*
X105284616Y-66255178D01*
X105270067Y-66284906D01*
X105264471Y-66293281D01*
X105264464Y-66293293D01*
X105229586Y-66377499D01*
X105229586Y-66377500D01*
X105189049Y-66475363D01*
X105189047Y-66475371D01*
X105176744Y-66537224D01*
X105176744Y-66537225D01*
X105151662Y-66663321D01*
X105150600Y-66668659D01*
X105150600Y-79298541D01*
X105150600Y-79298543D01*
X105150599Y-79298543D01*
X105189047Y-79491829D01*
X105189050Y-79491839D01*
X105264465Y-79673909D01*
X105264467Y-79673912D01*
X105270101Y-79682344D01*
X105290980Y-79749021D01*
X105291000Y-79751236D01*
X105291000Y-80281252D01*
X105253292Y-80259482D01*
X105113409Y-80222000D01*
X104968591Y-80222000D01*
X104828708Y-80259482D01*
X104791000Y-80281252D01*
X104791000Y-79333467D01*
X104653373Y-79355265D01*
X104653370Y-79355266D01*
X104472517Y-79414028D01*
X104402676Y-79416023D01*
X104342844Y-79379942D01*
X104312016Y-79317241D01*
X104310200Y-79296097D01*
X104310200Y-66838707D01*
X104329885Y-66771668D01*
X104346515Y-66751030D01*
X104920431Y-66177113D01*
X104946142Y-66163074D01*
X104970420Y-66146663D01*
X104981378Y-66143834D01*
X104981752Y-66143630D01*
X104982078Y-66143653D01*
X104983903Y-66143182D01*
X105050997Y-66129837D01*
X105119510Y-66101457D01*
X105188979Y-66093989D01*
X105251458Y-66125264D01*
G37*
%TD.AperFunction*%
%TA.AperFunction,Conductor*%
G36*
X109257517Y-73365485D02*
G01*
X109287673Y-73373182D01*
X109290466Y-73376181D01*
X109294366Y-73377448D01*
X109314075Y-73401539D01*
X109335284Y-73424319D01*
X109336328Y-73428741D01*
X109338608Y-73431527D01*
X109340143Y-73444885D01*
X109348400Y-73479824D01*
X109348400Y-77931969D01*
X109364334Y-78012073D01*
X109364482Y-78012819D01*
X109364488Y-78012849D01*
X109373396Y-78057637D01*
X109373398Y-78057642D01*
X109373399Y-78057644D01*
X109422435Y-78176027D01*
X109493623Y-78282569D01*
X109493626Y-78282573D01*
X109493627Y-78282574D01*
X110455681Y-79244627D01*
X110489166Y-79305950D01*
X110492000Y-79332308D01*
X110492000Y-80281252D01*
X110454292Y-80259482D01*
X110314409Y-80222000D01*
X110169591Y-80222000D01*
X110029708Y-80259482D01*
X109992000Y-80281252D01*
X109992000Y-79333467D01*
X109854374Y-79355265D01*
X109636931Y-79425917D01*
X109433223Y-79529711D01*
X109248257Y-79664097D01*
X109203681Y-79708674D01*
X109142358Y-79742159D01*
X109072666Y-79737175D01*
X109016733Y-79695303D01*
X108992316Y-79629839D01*
X108992000Y-79620993D01*
X108992000Y-73700435D01*
X108994835Y-73688233D01*
X108993811Y-73679320D01*
X109001213Y-73660789D01*
X109004709Y-73645751D01*
X109008332Y-73638377D01*
X109050894Y-73574679D01*
X109111237Y-73428997D01*
X109111252Y-73428917D01*
X109113109Y-73425140D01*
X109134148Y-73402204D01*
X109153679Y-73377968D01*
X109157569Y-73376673D01*
X109160341Y-73373652D01*
X109190437Y-73365733D01*
X109219973Y-73355903D01*
X109223946Y-73356917D01*
X109227911Y-73355874D01*
X109257517Y-73365485D01*
G37*
%TD.AperFunction*%
%TD*%
M02*
